<?xml version="1.0" encoding="UTF-8" standalone="no"?>
<!-- Created with Inkscape (http://www.inkscape.org/) -->

<svg
   xmlns:dc="http://purl.org/dc/elements/1.1/"
   xmlns:cc="http://creativecommons.org/ns#"
   xmlns:rdf="http://www.w3.org/1999/02/22-rdf-syntax-ns#"
   xmlns:svg="http://www.w3.org/2000/svg"
   xmlns="http://www.w3.org/2000/svg"
   xmlns:xlink="http://www.w3.org/1999/xlink"
   xmlns:sodipodi="http://sodipodi.sourceforge.net/DTD/sodipodi-0.dtd"
   xmlns:inkscape="http://www.inkscape.org/namespaces/inkscape"
   id="svg4389"
   version="1.1"
   inkscape:version="0.91 r13725"
   width="550"
   height="350"
   viewBox="0 0 550 350"
   sodipodi:docname="blackbird3.svg"
   inkscape:export-filename="/home/jrahm/projects/jarahm-templ/favicon.png"
   inkscape:export-xdpi="18.499996"
   inkscape:export-ydpi="18.499996">
  <metadata
     id="metadata4395">
    <rdf:RDF>
      <cc:Work
         rdf:about="">
        <dc:format>image/svg+xml</dc:format>
        <dc:type
           rdf:resource="http://purl.org/dc/dcmitype/StillImage" />
        <dc:title />
      </cc:Work>
    </rdf:RDF>
  </metadata>
  <defs
     id="defs4393">
    <filter
       style="color-interpolation-filters:sRGB;"
       inkscape:label="Feather"
       id="filter6124">
      <feGaussianBlur
         stdDeviation="11.0844"
         result="blur"
         id="feGaussianBlur6126" />
      <feComposite
         in="SourceGraphic"
         in2="blur"
         operator="atop"
         result="composite1"
         id="feComposite6128" />
      <feComposite
         in2="composite1"
         operator="in"
         result="composite2"
         id="feComposite6130" />
      <feComposite
         in2="composite2"
         operator="in"
         result="fbSourceGraphic"
         id="feComposite6132" />
      <feColorMatrix
         result="fbSourceGraphicAlpha"
         in="fbSourceGraphic"
         values="0 0 0 -1 0 0 0 0 -1 0 0 0 0 -1 0 0 0 0 1 0"
         id="feColorMatrix6134" />
      <feGaussianBlur
         id="feGaussianBlur6136"
         stdDeviation="11.08"
         result="blur"
         in="fbSourceGraphic" />
      <feComposite
         id="feComposite6138"
         in2="blur"
         in="fbSourceGraphic"
         operator="atop"
         result="composite1" />
      <feComposite
         id="feComposite6140"
         in2="composite1"
         operator="in"
         result="composite2" />
      <feComposite
         id="feComposite6142"
         in2="composite2"
         operator="in"
         result="composite3" />
    </filter>
  </defs>
  <sodipodi:namedview
     pagecolor="#ffffff"
     bordercolor="#666666"
     borderopacity="1"
     objecttolerance="10"
     gridtolerance="10"
     guidetolerance="10"
     inkscape:pageopacity="0"
     inkscape:pageshadow="2"
     inkscape:window-width="1863"
     inkscape:window-height="1053"
     id="namedview4391"
     showgrid="false"
     inkscape:zoom="1"
     inkscape:cx="-17.618795"
     inkscape:cy="137.94539"
     inkscape:window-x="57"
     inkscape:window-y="0"
     inkscape:window-maximized="1"
     inkscape:current-layer="svg4389"
     fit-margin-top="0"
     fit-margin-left="0"
     fit-margin-right="0"
     fit-margin-bottom="0" />
  <path
     sodipodi:type="inkscape:offset"
     inkscape:radius="0"
     inkscape:original="M 295.90234 0 C 293.51806 0.015745495 290.82523 1.800106 287.74219 5.3085938 C 285.27535 8.1158566 285.0867 9.3397976 286.10938 15.898438 C 286.74536 19.977121 286.9968 23.633753 286.66992 24.025391 C 285.78763 25.082472 275.66397 15.127483 274.13086 11.695312 C 273.40283 10.065471 271.02327 7.6276984 268.84375 6.2773438 C 265.62511 4.2831642 264.03769 4.1540138 260.38672 5.5976562 C 255.52674 7.5193598 254.6856 10.960855 257.16602 18.777344 C 257.86716 20.986827 258.17648 22.794922 257.85352 22.794922 C 257.53056 22.794922 252.82395 20.679793 247.39453 18.095703 C 232.21412 10.870704 227.82292 12.228995 228.6543 23.890625 L 229.07812 29.841797 L 219.08398 29.296875 C 210.3248 28.819157 208.75126 29.157305 206.34766 32.037109 C 204.83932 33.84428 203.60547 37.00906 203.60547 39.070312 C 203.60547 43.179547 201.455 44.720703 195.7168 44.720703 C 189.73176 44.720703 185.73544 47.763421 183.33008 54.154297 C 181.52151 58.959565 180.20219 60.298791 176.43945 61.144531 C 171.33282 62.292337 164.39063 69.964353 164.39062 74.460938 C 164.39062 75.993514 163.06682 78.312228 161.44922 79.613281 C 155.48542 84.410042 152.62695 88.765014 152.62695 93.048828 C 152.62695 95.755338 151.37453 98.705726 149.32031 100.8457 C 147.50237 102.73952 145.66934 106.36489 145.24609 108.90039 C 144.82284 111.43589 143.07833 114.60744 141.36914 115.94922 C 139.65994 117.29099 137.40679 120.84198 136.36133 123.83984 C 135.31587 126.83771 133.887 129.28906 133.1875 129.28906 C 132.48799 129.28906 130.21648 133.36578 128.13867 138.34766 C 123.6837 149.02907 123.28171 160.20653 127.16797 165.35156 C 131.59775 171.21615 128.22584 172.35742 106.48047 172.35742 C 83.896268 172.35742 83.337019 172.59161 76.542969 184.88086 C 73.608178 190.18936 70.667279 193.27965 66.4375 195.49805 C 57.411905 200.23171 53.571145 204.02684 52.634766 209.13477 C 51.934228 212.95617 49.976989 214.91727 41.40625 220.38867 C 28.295834 228.75812 25.238281 232.5508 25.238281 240.44531 C 25.238281 245.44109 24.587179 246.9549 21.496094 249.14258 C 13.753953 254.62204 8.8398438 261.0161 8.8398438 265.61133 C 8.8398438 268.05535 9.4499448 270.50666 10.195312 271.05859 C 10.944937 271.61367 8.901401 274.48736 5.6210938 277.48828 C -0.94360974 283.49386 -1.0575809 283.80252 1.7167969 288.19922 C 3.6499978 291.26285 3.68747 291.26285 8.4765625 288.19922 C 11.125308 286.50478 14.790175 283.63822 16.621094 281.82812 C 20.935712 277.56252 25.835607 274.49084 25.824219 276.05859 C 25.819019 276.73491 23.656346 279.04972 21.017578 281.20312 C 14.758475 286.31095 0.99804688 302.16863 0.99804688 304.27344 C 0.99804688 306.35046 9.429025 308.31033 12.818359 307.02148 C 16.218589 305.72848 16.070152 306.33207 11.455078 312.52539 C 4.4135056 321.97501 6.8379406 324.59884 16.498047 317.98242 C 21.235 314.738 22.030348 314.5427 21.214844 316.82617 C 19.88495 320.54995 15.375 336.31999 15.375 337.24805 C 15.375 339.29166 25.298151 335.69443 27.976562 332.67969 C 31.82181 328.3516 32.507225 329.11916 31.166016 336.24414 C 28.800933 348.8081 35.198416 350.36301 45.974609 339.8457 L 53.283203 332.71289 L 53.283203 339.8457 C 53.283203 345.93517 53.666767 346.98047 55.898438 346.98047 C 57.336301 346.98047 58.511719 347.6855 58.511719 348.54688 C 58.511719 350.5763 61.093424 350.46794 64.394531 348.30078 C 65.832395 347.35683 70.096705 342.99724 73.871094 338.61328 C 79.372384 332.22353 80.732422 331.26308 80.732422 333.76562 C 80.732422 339.54669 84.427535 343.84766 89.390625 343.84766 C 91.913392 343.84766 95.200684 343.06314 96.697266 342.10352 C 101.25496 339.18106 107.82206 330.47384 110.9043 323.26758 C 112.51043 319.51243 113.97697 317.14645 114.16406 318.00781 C 114.35117 318.86917 114.85116 322.0661 115.27344 325.11328 C 117.15611 338.69891 135.82808 339.7975 141.5 326.65625 C 142.59432 324.12083 144.4031 317.2604 145.51953 311.41211 C 149.19631 292.15182 159.44455 257.19206 168.60547 232.6543 C 170.37416 227.9168 172.48962 222.10117 173.30664 219.73242 C 174.34594 216.71923 175.73734 215.42578 177.93945 215.42578 C 180.48334 215.42578 181.21322 216.40188 181.74805 220.51562 C 182.11201 223.31506 181.88597 226.27546 181.24414 227.09375 C 180.60232 227.91205 180.07617 229.94354 180.07617 231.60742 C 180.07617 234.22703 180.76973 234.52015 185.24609 233.80078 C 190.28868 232.99044 190.39874 233.07498 189.70898 237.20703 C 188.69733 243.26738 192.06842 246.3577 197.17383 244.04883 C 200.02962 242.75734 200.9881 242.78151 200.98047 244.14453 C 200.96637 246.66214 194.74377 249.89526 192.07227 248.77344 C 190.37459 248.06052 190.21842 248.2937 191.38281 249.80664 C 192.20958 250.88092 195.00365 251.75977 197.5918 251.75977 C 200.91887 251.75977 202.29883 252.45353 202.29883 254.12695 C 202.29883 255.98373 201.31171 256.27156 197.72266 255.46484 C 195.17571 254.89237 193.14844 255.07916 193.14844 255.88477 C 193.14844 258.26231 207.13271 263.97656 212.95117 263.97656 C 215.00068 263.97656 216.67773 264.59053 216.67773 265.3418 C 216.67773 267.53178 226.96256 268.89496 229.79297 267.08008 C 231.80911 265.78731 232.36328 265.93076 232.36328 267.74414 C 232.36328 269.01565 233.03831 270.55515 233.86328 271.16602 C 236.72558 273.28549 246.09254 273.08923 249.0293 270.84766 C 250.6469 269.613 251.9707 269.26762 251.9707 270.08203 C 251.9707 272.84499 261.126 275.24708 268.04492 274.29883 C 271.78502 273.78624 276.31595 273.48272 278.11328 273.625 C 279.91061 273.76737 285.98853 273.94493 291.61914 274.01953 C 300.11959 274.13217 302.15248 273.66822 303.60547 271.28516 C 305.28834 268.5251 305.41107 268.53759 306.7832 271.60938 C 309.02007 276.61707 315.59807 277.2355 324.44531 273.26953 C 330.79943 270.42114 332.5987 270.15491 334.72266 271.74414 C 340.06058 275.73816 359.15625 271.97536 359.15625 266.92969 C 359.15625 265.14943 364.00919 265.11165 364.92383 266.88477 C 365.30471 267.62317 368.61735 268.65309 372.28711 269.17383 C 379.97306 270.26445 388.14738 267.12323 391.19727 261.90625 C 393.06456 258.71214 393.23551 258.70031 399.33203 261.31836 C 405.8956 264.13695 411.08399 264.61013 417.78711 263.00391 C 420.88241 262.2622 422.22288 260.77762 423.44141 256.74023 C 425.30404 250.56871 426.17179 250.39528 434.31641 254.57812 C 437.66987 256.30037 443.61303 258.0821 447.52344 258.53711 C 456.22314 259.54935 457.35282 257.55613 453.54297 247.91602 C 451.35778 242.38679 451.23367 241.17953 452.81055 240.74609 C 453.8534 240.45943 456.06516 241.29141 457.72656 242.5957 C 461.41456 245.49089 472.63647 249.28612 481.11523 250.50586 C 488.24494 251.53153 488.22172 250.60453 480.92578 242.94336 C 470.61028 232.11147 470.72114 229.82859 481.34766 234.20898 C 489.73027 237.6644 510.76491 242.59732 511.80469 241.35156 C 512.77192 240.1927 512.72299 240.15941 502.73242 235.1875 C 492.95946 230.32389 488.79468 227.15641 490.10547 225.58594 C 490.59163 225.00347 498.51282 225.68892 507.70703 227.10938 C 523.16865 229.49815 525.07343 229.50058 533.09766 227.14453 C 542.1026 224.50058 550 219.76876 550 217.01562 C 550 214.95488 549.1466 215.0019 539.29688 217.61328 C 534.75895 218.81638 523.85886 220.21957 515.07422 220.73047 C 499.19086 221.65424 499.04171 221.63079 488.27734 216.42773 C 478.08473 211.50103 455.80191 198.1958 452.7168 195.19531 C 451.94348 194.4432 448.37005 191.90652 444.77539 189.55664 C 435.86167 183.72964 435.3208 182.95147 438.30859 180.24414 C 440.75002 178.03187 440.7101 177.93647 437.28906 177.88867 C 431.8996 177.81337 420.94685 172.57781 395.66602 157.98828 C 387.9407 153.53001 381.17601 150.35732 380.63477 150.93945 C 380.09355 151.52159 379.99827 151.26642 380.42188 150.37109 C 380.84548 149.47574 378.53872 147.0559 375.29492 144.99414 L 369.39648 141.24609 L 372.44531 138.32617 C 374.12264 136.72004 379.60791 132.09145 384.63477 128.04102 L 393.77539 120.67578 L 408.68945 120.30859 C 424.13374 119.92728 426.85878 119.35228 421.67188 117.56836 C 420.00009 116.9934 415.39554 114.52197 411.44141 112.07617 C 407.48728 109.63038 402.03113 107.13466 399.31641 106.53125 C 395.22595 105.62204 394.64699 105.05075 395.93359 103.19336 C 397.19696 101.36949 396.18327 99.486091 390.48828 93.080078 C 386.63924 88.750509 381.8613 84.199868 379.87109 82.966797 C 373.19028 78.827579 358.60151 75.631316 346.34961 75.623047 C 336.14381 75.616747 334.25987 75.229938 334.58594 73.216797 C 334.79949 71.898361 336.73774 70.118859 338.89453 69.261719 C 343.68959 67.356103 345.09446 65.324748 349.89844 53.333984 C 354.45104 41.970602 359.34986 15.42565 357.63086 11.439453 C 356.23334 8.1986993 354.76724 7.9817726 352.33203 10.65625 C 351.35165 11.732954 349.39773 13.396434 347.99023 14.351562 C 346.58273 15.306691 343.37173 20.94508 340.85547 26.880859 C 338.33921 32.816637 336.08618 38.023796 335.84766 38.453125 C 335.60915 38.882452 334.55223 37.824888 333.5 36.103516 C 332.01088 33.667493 331.78207 30.303986 332.46289 20.931641 C 333.83436 2.0512631 331.72332 -2.8892465 324.25781 1.7265625 C 315.86653 6.9147589 314.71839 8.9415564 313.84766 20.113281 C 313.0762 30.011306 312.87725 30.535707 310.76562 28.246094 C 309.52411 26.89995 307.21061 20.874844 305.625 14.855469 C 302.99179 4.8591218 299.87615 -0.026242491 295.90234 0 z "
     xlink:href="#path5752"
     style="fill:#000000;fill-opacity:0.1414634"
     id="path6090"
     d="m 295.90234,0 c -2.38428,0.0157455 -5.07711,1.800106 -8.16015,5.3085938 -2.46684,2.8072628 -2.65549,4.0312038 -1.63281,10.5898442 0.63598,4.078683 0.88742,7.735315 0.56054,8.126953 -0.88229,1.057081 -11.00595,-8.897908 -12.53906,-12.330079 -0.72803,-1.629841 -3.10759,-4.0676136 -5.28711,-5.4179682 -3.21864,-1.9941796 -4.80606,-2.12333 -8.45703,-0.6796876 -4.85998,1.9217036 -5.70112,5.3631988 -3.2207,13.1796878 0.70114,2.209483 1.01046,4.017578 0.6875,4.017578 -0.32296,0 -5.02957,-2.115129 -10.45899,-4.699219 -15.18041,-7.224999 -19.57161,-5.866708 -18.74023,5.794922 l 0.42382,5.951172 -9.99414,-0.544922 c -8.75918,-0.477718 -10.33272,-0.13957 -12.73632,2.740234 -1.50834,1.807171 -2.74219,4.971951 -2.74219,7.033203 0,4.109235 -2.15047,5.650391 -7.88867,5.650391 -5.98504,0 -9.98136,3.042718 -12.38672,9.433594 -1.80857,4.805268 -3.12789,6.144494 -6.89063,6.990234 -5.10663,1.147806 -12.04882,8.819822 -12.04883,13.316407 0,1.532576 -1.3238,3.85129 -2.9414,5.152343 -5.9638,4.796761 -8.82227,9.151733 -8.82227,13.435547 0,2.70651 -1.25242,5.656898 -3.30664,7.796872 -1.81794,1.89382 -3.65097,5.51919 -4.07422,8.05469 -0.42325,2.5355 -2.16776,5.70705 -3.87695,7.04883 -1.7092,1.34177 -3.96235,4.89276 -5.00781,7.89062 -1.04546,2.99787 -2.47433,5.44922 -3.17383,5.44922 -0.69951,0 -2.97102,4.07672 -5.04883,9.0586 -4.45497,10.68141 -4.85696,21.85887 -0.9707,27.0039 4.42978,5.86459 1.05787,7.00586 -20.6875,7.00586 -22.584202,0 -23.143451,0.23419 -29.937501,12.52344 -2.934791,5.3085 -5.87569,8.39879 -10.105469,10.61719 -9.025595,4.73366 -12.866355,8.52879 -13.802734,13.63672 -0.700538,3.8214 -2.657777,5.7825 -11.228516,11.2539 -13.110416,8.36945 -16.167969,12.16213 -16.167969,20.05664 0,4.99578 -0.651102,6.50959 -3.742187,8.69727 -7.742141,5.47946 -12.6562502,11.87352 -12.6562502,16.46875 0,2.44402 0.610101,4.89533 1.3554682,5.44726 0.749625,0.55508 -1.293911,3.42877 -4.5742182,6.42969 -6.56470354,6.00558 -6.6786747,6.31424 -3.9042969,10.71094 1.9332009,3.06363 1.9706731,3.06363 6.7597656,0 2.6487455,-1.69444 6.3136125,-4.561 8.1445315,-6.3711 4.314618,-4.2656 9.214513,-7.33728 9.203125,-5.76953 -0.0052,0.67632 -2.167873,2.99113 -4.806641,5.14453 -6.259103,5.10783 -20.01953112,20.96551 -20.01953112,23.07032 0,2.07702 8.43097812,4.03689 11.82031212,2.74804 3.40023,-1.293 3.251793,-0.68941 -1.363281,5.50391 -7.0415724,9.44962 -4.6171374,12.07345 5.042969,5.45703 4.736953,-3.24442 5.532301,-3.43972 4.716797,-1.15625 -1.329894,3.72378 -5.839844,19.49382 -5.839844,20.42188 0,2.04361 9.923151,-1.55362 12.601562,-4.56836 3.845248,-4.32809 4.530663,-3.56053 3.189454,3.56445 -2.365083,12.56396 4.0324,14.11887 14.808593,3.60156 l 7.308594,-7.13281 0,7.13281 c 0,6.08947 0.383564,7.13477 2.615235,7.13477 1.437863,0 2.613281,0.70503 2.613281,1.56641 0,2.02942 2.581705,1.92106 5.882812,-0.2461 1.437864,-0.94395 5.702174,-5.30354 9.476563,-9.6875 5.50129,-6.38975 6.861328,-7.3502 6.861328,-4.84766 0,5.78107 3.695113,10.08204 8.658203,10.08204 2.522767,0 5.810059,-0.78452 7.306641,-1.74414 4.557694,-2.92246 11.124794,-11.62968 14.207034,-18.83594 1.60613,-3.75515 3.07267,-6.12113 3.25976,-5.25977 0.18711,0.86136 0.6871,4.05829 1.10938,7.10547 1.88267,13.58563 20.55464,14.68422 26.22656,1.54297 1.09432,-2.53542 2.9031,-9.39585 4.01953,-15.24414 3.67678,-19.26029 13.92502,-54.22005 23.08594,-78.75781 1.76869,-4.7375 3.88415,-10.55313 4.70117,-12.92188 1.0393,-3.01319 2.4307,-4.30664 4.63281,-4.30664 2.54389,0 3.27377,0.9761 3.8086,5.08984 0.36396,2.79944 0.13792,5.75984 -0.50391,6.57813 -0.64182,0.8183 -1.16797,2.84979 -1.16797,4.51367 0,2.61961 0.69356,2.91273 5.16992,2.19336 5.04259,-0.81034 5.15265,-0.7258 4.46289,3.40625 -1.01165,6.06035 2.35944,9.15067 7.46485,6.8418 2.85579,-1.29149 3.81427,-1.26732 3.80664,0.0957 -0.0141,2.51761 -6.2367,5.75073 -8.9082,4.62891 -1.69768,-0.71292 -1.85385,-0.47974 -0.68946,1.0332 0.82677,1.07428 3.62084,1.95313 6.20899,1.95313 3.32707,0 4.70703,0.69376 4.70703,2.36718 0,1.85678 -0.98712,2.14461 -4.57617,1.33789 -2.54695,-0.57247 -4.57422,-0.38568 -4.57422,0.41993 0,2.37754 13.98427,8.09179 19.80273,8.09179 2.04951,0 3.72656,0.61397 3.72656,1.36524 0,2.18998 10.28483,3.55316 13.11524,1.73828 2.01614,-1.29277 2.57031,-1.14932 2.57031,0.66406 0,1.27151 0.67503,2.81101 1.5,3.42188 2.8623,2.11947 12.22926,1.92321 15.16602,-0.31836 1.6176,-1.23466 2.9414,-1.58004 2.9414,-0.76563 0,2.76296 9.1553,5.16505 16.07422,4.2168 3.7401,-0.51259 8.27103,-0.81611 10.06836,-0.67383 1.79733,0.14237 7.87525,0.31993 13.50586,0.39453 8.50045,0.11264 10.53334,-0.35131 11.98633,-2.73437 1.68287,-2.76006 1.8056,-2.74757 3.17773,0.32422 2.23687,5.00769 8.81487,5.62612 17.66211,1.66015 6.35412,-2.84839 8.15339,-3.11462 10.27735,-1.52539 5.33792,3.99402 24.43359,0.23122 24.43359,-4.81445 0,-1.78026 4.85294,-1.81804 5.76758,-0.0449 0.38088,0.7384 3.69352,1.76832 7.36328,2.28906 7.68595,1.09062 15.86027,-2.0506 18.91016,-7.26758 1.86729,-3.19411 2.03824,-3.20594 8.13476,-0.58789 6.56357,2.81859 11.75196,3.29177 18.45508,1.68555 3.0953,-0.74171 4.43577,-2.22629 5.6543,-6.26368 1.86263,-6.17152 2.73038,-6.34495 10.875,-2.16211 3.35346,1.72225 9.29662,3.50398 13.20703,3.95899 8.6997,1.01224 9.82938,-0.98098 6.01953,-10.62109 -2.18519,-5.52923 -2.3093,-6.73649 -0.73242,-7.16993 1.04285,-0.28666 3.25461,0.54532 4.91601,1.84961 3.688,2.89519 14.90991,6.69042 23.38867,7.91016 7.12971,1.02567 7.10649,0.0987 -0.18945,-7.5625 -10.3155,-10.83189 -10.20464,-13.11477 0.42188,-8.73438 8.38261,3.45542 29.41725,8.38834 30.45703,7.14258 0.96723,-1.15886 0.9183,-1.19215 -9.07227,-6.16406 -9.77296,-4.86361 -13.93774,-8.03109 -12.62695,-9.60156 0.48616,-0.58247 8.40735,0.10298 17.60156,1.52344 15.46162,2.38877 17.3664,2.3912 25.39063,0.0352 C 542.1026,224.50058 550,219.76876 550,217.01562 c 0,-2.06074 -0.8534,-2.01372 -10.70312,0.59766 -4.53793,1.2031 -15.43802,2.60629 -24.22266,3.11719 -15.88336,0.92377 -16.03251,0.90032 -26.79688,-4.30274 -10.19261,-4.9267 -32.47543,-18.23193 -35.56054,-21.23242 -0.77332,-0.75211 -4.34675,-3.28879 -7.94141,-5.63867 -8.91372,-5.827 -9.45459,-6.60517 -6.4668,-9.3125 2.44143,-2.21227 2.40151,-2.30767 -1.01953,-2.35547 -5.38946,-0.0753 -16.34221,-5.31086 -41.62304,-19.90039 -7.72532,-4.45827 -14.49001,-7.63096 -15.03125,-7.04883 -0.54122,0.58214 -0.6365,0.32697 -0.21289,-0.56836 0.4236,-0.89535 -1.88316,-3.31519 -5.12696,-5.37695 l -5.89844,-3.74805 3.04883,-2.91992 c 1.67733,-1.60613 7.1626,-6.23472 12.18946,-10.28515 l 9.14062,-7.36524 14.91406,-0.36719 c 15.44429,-0.38131 18.16933,-0.95631 12.98243,-2.74023 -1.67179,-0.57496 -6.27634,-3.04639 -10.23047,-5.49219 -3.95413,-2.44579 -9.41028,-4.94151 -12.125,-5.54492 -4.09046,-0.90921 -4.66942,-1.4805 -3.38282,-3.33789 1.26337,-1.82387 0.24968,-3.707269 -5.44531,-10.113282 -3.84904,-4.329569 -8.62698,-8.88021 -10.61719,-10.113281 -6.68081,-4.139218 -21.26958,-7.335481 -33.52148,-7.34375 -10.2058,-0.0063 -12.08974,-0.393109 -11.76367,-2.40625 0.21355,-1.318436 2.1518,-3.097938 4.30859,-3.955078 4.79506,-1.905616 6.19993,-3.936971 11.00391,-15.927735 4.5526,-11.363382 9.45142,-37.908334 7.73242,-41.894531 -1.39752,-3.2407537 -2.86362,-3.4576804 -5.29883,-0.783203 -0.98038,1.076704 -2.9343,2.740184 -4.3418,3.695312 -1.4075,0.955129 -4.6185,6.593518 -7.13476,12.529297 -2.51626,5.935778 -4.76929,11.142937 -5.00781,11.572266 -0.23851,0.429327 -1.29543,-0.628237 -2.34766,-2.349609 -1.48912,-2.436023 -1.71793,-5.79953 -1.03711,-15.171875 1.37147,-18.8803779 -0.73957,-23.8208875 -8.20508,-19.2050785 -8.39128,5.1881964 -9.53942,7.2149939 -10.41015,18.3867185 -0.77146,9.898025 -0.97041,10.422426 -3.08204,8.132813 C 309.52411,26.89995 307.21061,20.874844 305.625,14.855469 302.99179,4.8591218 299.87615,-0.02624249 295.90234,0 Z"
     transform="matrix(0.92928933,0,0,0.29693475,26.870056,241.83044)" />
  <path
     sodipodi:type="inkscape:offset"
     inkscape:radius="0"
     inkscape:original="M 295.90234 0 C 293.51806 0.015745495 290.82523 1.800106 287.74219 5.3085938 C 285.27535 8.1158566 285.0867 9.3397976 286.10938 15.898438 C 286.74536 19.977121 286.9968 23.633753 286.66992 24.025391 C 285.78763 25.082472 275.66397 15.127483 274.13086 11.695312 C 273.40283 10.065471 271.02327 7.6276984 268.84375 6.2773438 C 265.62511 4.2831642 264.03769 4.1540138 260.38672 5.5976562 C 255.52674 7.5193598 254.6856 10.960855 257.16602 18.777344 C 257.86716 20.986827 258.17648 22.794922 257.85352 22.794922 C 257.53056 22.794922 252.82395 20.679793 247.39453 18.095703 C 232.21412 10.870704 227.82292 12.228995 228.6543 23.890625 L 229.07812 29.841797 L 219.08398 29.296875 C 210.3248 28.819157 208.75126 29.157305 206.34766 32.037109 C 204.83932 33.84428 203.60547 37.00906 203.60547 39.070312 C 203.60547 43.179547 201.455 44.720703 195.7168 44.720703 C 189.73176 44.720703 185.73544 47.763421 183.33008 54.154297 C 181.52151 58.959565 180.20219 60.298791 176.43945 61.144531 C 171.33282 62.292337 164.39063 69.964353 164.39062 74.460938 C 164.39062 75.993514 163.06682 78.312228 161.44922 79.613281 C 155.48542 84.410042 152.62695 88.765014 152.62695 93.048828 C 152.62695 95.755338 151.37453 98.705726 149.32031 100.8457 C 147.50237 102.73952 145.66934 106.36489 145.24609 108.90039 C 144.82284 111.43589 143.07833 114.60744 141.36914 115.94922 C 139.65994 117.29099 137.40679 120.84198 136.36133 123.83984 C 135.31587 126.83771 133.887 129.28906 133.1875 129.28906 C 132.48799 129.28906 130.21648 133.36578 128.13867 138.34766 C 123.6837 149.02907 123.28171 160.20653 127.16797 165.35156 C 131.59775 171.21615 128.22584 172.35742 106.48047 172.35742 C 83.896268 172.35742 83.337019 172.59161 76.542969 184.88086 C 73.608178 190.18936 70.667279 193.27965 66.4375 195.49805 C 57.411905 200.23171 53.571145 204.02684 52.634766 209.13477 C 51.934228 212.95617 49.976989 214.91727 41.40625 220.38867 C 28.295834 228.75812 25.238281 232.5508 25.238281 240.44531 C 25.238281 245.44109 24.587179 246.9549 21.496094 249.14258 C 13.753953 254.62204 8.8398438 261.0161 8.8398438 265.61133 C 8.8398438 268.05535 9.4499448 270.50666 10.195312 271.05859 C 10.944937 271.61367 8.901401 274.48736 5.6210938 277.48828 C -0.94360974 283.49386 -1.0575809 283.80252 1.7167969 288.19922 C 3.6499978 291.26285 3.68747 291.26285 8.4765625 288.19922 C 11.125308 286.50478 14.790175 283.63822 16.621094 281.82812 C 20.935712 277.56252 25.835607 274.49084 25.824219 276.05859 C 25.819019 276.73491 23.656346 279.04972 21.017578 281.20312 C 14.758475 286.31095 0.99804688 302.16863 0.99804688 304.27344 C 0.99804688 306.35046 9.429025 308.31033 12.818359 307.02148 C 16.218589 305.72848 16.070152 306.33207 11.455078 312.52539 C 4.4135056 321.97501 6.8379406 324.59884 16.498047 317.98242 C 21.235 314.738 22.030348 314.5427 21.214844 316.82617 C 19.88495 320.54995 15.375 336.31999 15.375 337.24805 C 15.375 339.29166 25.298151 335.69443 27.976562 332.67969 C 31.82181 328.3516 32.507225 329.11916 31.166016 336.24414 C 28.800933 348.8081 35.198416 350.36301 45.974609 339.8457 L 53.283203 332.71289 L 53.283203 339.8457 C 53.283203 345.93517 53.666767 346.98047 55.898438 346.98047 C 57.336301 346.98047 58.511719 347.6855 58.511719 348.54688 C 58.511719 350.5763 61.093424 350.46794 64.394531 348.30078 C 65.832395 347.35683 70.096705 342.99724 73.871094 338.61328 C 79.372384 332.22353 80.732422 331.26308 80.732422 333.76562 C 80.732422 339.54669 84.427535 343.84766 89.390625 343.84766 C 91.913392 343.84766 95.200684 343.06314 96.697266 342.10352 C 101.25496 339.18106 107.82206 330.47384 110.9043 323.26758 C 112.51043 319.51243 113.97697 317.14645 114.16406 318.00781 C 114.35117 318.86917 114.85116 322.0661 115.27344 325.11328 C 117.15611 338.69891 135.82808 339.7975 141.5 326.65625 C 142.59432 324.12083 144.4031 317.2604 145.51953 311.41211 C 149.19631 292.15182 159.44455 257.19206 168.60547 232.6543 C 170.37416 227.9168 172.48962 222.10117 173.30664 219.73242 C 174.34594 216.71923 175.73734 215.42578 177.93945 215.42578 C 180.48334 215.42578 181.21322 216.40188 181.74805 220.51562 C 182.11201 223.31506 181.88597 226.27546 181.24414 227.09375 C 180.60232 227.91205 180.07617 229.94354 180.07617 231.60742 C 180.07617 234.22703 180.76973 234.52015 185.24609 233.80078 C 190.28868 232.99044 190.39874 233.07498 189.70898 237.20703 C 188.69733 243.26738 192.06842 246.3577 197.17383 244.04883 C 200.02962 242.75734 200.9881 242.78151 200.98047 244.14453 C 200.96637 246.66214 194.74377 249.89526 192.07227 248.77344 C 190.37459 248.06052 190.21842 248.2937 191.38281 249.80664 C 192.20958 250.88092 195.00365 251.75977 197.5918 251.75977 C 200.91887 251.75977 202.29883 252.45353 202.29883 254.12695 C 202.29883 255.98373 201.31171 256.27156 197.72266 255.46484 C 195.17571 254.89237 193.14844 255.07916 193.14844 255.88477 C 193.14844 258.26231 207.13271 263.97656 212.95117 263.97656 C 215.00068 263.97656 216.67773 264.59053 216.67773 265.3418 C 216.67773 267.53178 226.96256 268.89496 229.79297 267.08008 C 231.80911 265.78731 232.36328 265.93076 232.36328 267.74414 C 232.36328 269.01565 233.03831 270.55515 233.86328 271.16602 C 236.72558 273.28549 246.09254 273.08923 249.0293 270.84766 C 250.6469 269.613 251.9707 269.26762 251.9707 270.08203 C 251.9707 272.84499 261.126 275.24708 268.04492 274.29883 C 271.78502 273.78624 276.31595 273.48272 278.11328 273.625 C 279.91061 273.76737 285.98853 273.94493 291.61914 274.01953 C 300.11959 274.13217 302.15248 273.66822 303.60547 271.28516 C 305.28834 268.5251 305.41107 268.53759 306.7832 271.60938 C 309.02007 276.61707 315.59807 277.2355 324.44531 273.26953 C 330.79943 270.42114 332.5987 270.15491 334.72266 271.74414 C 340.06058 275.73816 359.15625 271.97536 359.15625 266.92969 C 359.15625 265.14943 364.00919 265.11165 364.92383 266.88477 C 365.30471 267.62317 368.61735 268.65309 372.28711 269.17383 C 379.97306 270.26445 388.14738 267.12323 391.19727 261.90625 C 393.06456 258.71214 393.23551 258.70031 399.33203 261.31836 C 405.8956 264.13695 411.08399 264.61013 417.78711 263.00391 C 420.88241 262.2622 422.22288 260.77762 423.44141 256.74023 C 425.30404 250.56871 426.17179 250.39528 434.31641 254.57812 C 437.66987 256.30037 443.61303 258.0821 447.52344 258.53711 C 456.22314 259.54935 457.35282 257.55613 453.54297 247.91602 C 451.35778 242.38679 451.23367 241.17953 452.81055 240.74609 C 453.8534 240.45943 456.06516 241.29141 457.72656 242.5957 C 461.41456 245.49089 472.63647 249.28612 481.11523 250.50586 C 488.24494 251.53153 488.22172 250.60453 480.92578 242.94336 C 470.61028 232.11147 470.72114 229.82859 481.34766 234.20898 C 489.73027 237.6644 510.76491 242.59732 511.80469 241.35156 C 512.77192 240.1927 512.72299 240.15941 502.73242 235.1875 C 492.95946 230.32389 488.79468 227.15641 490.10547 225.58594 C 490.59163 225.00347 498.51282 225.68892 507.70703 227.10938 C 523.16865 229.49815 525.07343 229.50058 533.09766 227.14453 C 542.1026 224.50058 550 219.76876 550 217.01562 C 550 214.95488 549.1466 215.0019 539.29688 217.61328 C 534.75895 218.81638 523.85886 220.21957 515.07422 220.73047 C 499.19086 221.65424 499.04171 221.63079 488.27734 216.42773 C 478.08473 211.50103 455.80191 198.1958 452.7168 195.19531 C 451.94348 194.4432 448.37005 191.90652 444.77539 189.55664 C 435.86167 183.72964 435.3208 182.95147 438.30859 180.24414 C 440.75002 178.03187 440.7101 177.93647 437.28906 177.88867 C 431.8996 177.81337 420.94685 172.57781 395.66602 157.98828 C 387.9407 153.53001 381.17601 150.35732 380.63477 150.93945 C 380.09355 151.52159 379.99827 151.26642 380.42188 150.37109 C 380.84548 149.47574 378.53872 147.0559 375.29492 144.99414 L 369.39648 141.24609 L 372.44531 138.32617 C 374.12264 136.72004 379.60791 132.09145 384.63477 128.04102 L 393.77539 120.67578 L 408.68945 120.30859 C 424.13374 119.92728 426.85878 119.35228 421.67188 117.56836 C 420.00009 116.9934 415.39554 114.52197 411.44141 112.07617 C 407.48728 109.63038 402.03113 107.13466 399.31641 106.53125 C 395.22595 105.62204 394.64699 105.05075 395.93359 103.19336 C 397.19696 101.36949 396.18327 99.486091 390.48828 93.080078 C 386.63924 88.750509 381.8613 84.199868 379.87109 82.966797 C 373.19028 78.827579 358.60151 75.631316 346.34961 75.623047 C 336.14381 75.616747 334.25987 75.229938 334.58594 73.216797 C 334.79949 71.898361 336.73774 70.118859 338.89453 69.261719 C 343.68959 67.356103 345.09446 65.324748 349.89844 53.333984 C 354.45104 41.970602 359.34986 15.42565 357.63086 11.439453 C 356.23334 8.1986993 354.76724 7.9817726 352.33203 10.65625 C 351.35165 11.732954 349.39773 13.396434 347.99023 14.351562 C 346.58273 15.306691 343.37173 20.94508 340.85547 26.880859 C 338.33921 32.816637 336.08618 38.023796 335.84766 38.453125 C 335.60915 38.882452 334.55223 37.824888 333.5 36.103516 C 332.01088 33.667493 331.78207 30.303986 332.46289 20.931641 C 333.83436 2.0512631 331.72332 -2.8892465 324.25781 1.7265625 C 315.86653 6.9147589 314.71839 8.9415564 313.84766 20.113281 C 313.0762 30.011306 312.87725 30.535707 310.76562 28.246094 C 309.52411 26.89995 307.21061 20.874844 305.625 14.855469 C 302.99179 4.8591218 299.87615 -0.026242491 295.90234 0 z "
     xlink:href="#path5752"
     style="fill:#000000;fill-opacity:1"
     id="path6086"
     d="m 295.90234,0 c -2.38428,0.0157455 -5.07711,1.800106 -8.16015,5.3085938 -2.46684,2.8072628 -2.65549,4.0312038 -1.63281,10.5898442 0.63598,4.078683 0.88742,7.735315 0.56054,8.126953 -0.88229,1.057081 -11.00595,-8.897908 -12.53906,-12.330079 -0.72803,-1.629841 -3.10759,-4.0676136 -5.28711,-5.4179682 -3.21864,-1.9941796 -4.80606,-2.12333 -8.45703,-0.6796876 -4.85998,1.9217036 -5.70112,5.3631988 -3.2207,13.1796878 0.70114,2.209483 1.01046,4.017578 0.6875,4.017578 -0.32296,0 -5.02957,-2.115129 -10.45899,-4.699219 -15.18041,-7.224999 -19.57161,-5.866708 -18.74023,5.794922 l 0.42382,5.951172 -9.99414,-0.544922 c -8.75918,-0.477718 -10.33272,-0.13957 -12.73632,2.740234 -1.50834,1.807171 -2.74219,4.971951 -2.74219,7.033203 0,4.109235 -2.15047,5.650391 -7.88867,5.650391 -5.98504,0 -9.98136,3.042718 -12.38672,9.433594 -1.80857,4.805268 -3.12789,6.144494 -6.89063,6.990234 -5.10663,1.147806 -12.04882,8.819822 -12.04883,13.316407 0,1.532576 -1.3238,3.85129 -2.9414,5.152343 -5.9638,4.796761 -8.82227,9.151733 -8.82227,13.435547 0,2.70651 -1.25242,5.656898 -3.30664,7.796872 -1.81794,1.89382 -3.65097,5.51919 -4.07422,8.05469 -0.42325,2.5355 -2.16776,5.70705 -3.87695,7.04883 -1.7092,1.34177 -3.96235,4.89276 -5.00781,7.89062 -1.04546,2.99787 -2.47433,5.44922 -3.17383,5.44922 -0.69951,0 -2.97102,4.07672 -5.04883,9.0586 -4.45497,10.68141 -4.85696,21.85887 -0.9707,27.0039 4.42978,5.86459 1.05787,7.00586 -20.6875,7.00586 -22.584202,0 -23.143451,0.23419 -29.937501,12.52344 -2.934791,5.3085 -5.87569,8.39879 -10.105469,10.61719 -9.025595,4.73366 -12.866355,8.52879 -13.802734,13.63672 -0.700538,3.8214 -2.657777,5.7825 -11.228516,11.2539 -13.110416,8.36945 -16.167969,12.16213 -16.167969,20.05664 0,4.99578 -0.651102,6.50959 -3.742187,8.69727 -7.742141,5.47946 -12.6562502,11.87352 -12.6562502,16.46875 0,2.44402 0.610101,4.89533 1.3554682,5.44726 0.749625,0.55508 -1.293911,3.42877 -4.5742182,6.42969 -6.56470354,6.00558 -6.6786747,6.31424 -3.9042969,10.71094 1.9332009,3.06363 1.9706731,3.06363 6.7597656,0 2.6487455,-1.69444 6.3136125,-4.561 8.1445315,-6.3711 4.314618,-4.2656 9.214513,-7.33728 9.203125,-5.76953 -0.0052,0.67632 -2.167873,2.99113 -4.806641,5.14453 -6.259103,5.10783 -20.01953112,20.96551 -20.01953112,23.07032 0,2.07702 8.43097812,4.03689 11.82031212,2.74804 3.40023,-1.293 3.251793,-0.68941 -1.363281,5.50391 -7.0415724,9.44962 -4.6171374,12.07345 5.042969,5.45703 4.736953,-3.24442 5.532301,-3.43972 4.716797,-1.15625 -1.329894,3.72378 -5.839844,19.49382 -5.839844,20.42188 0,2.04361 9.923151,-1.55362 12.601562,-4.56836 3.845248,-4.32809 4.530663,-3.56053 3.189454,3.56445 -2.365083,12.56396 4.0324,14.11887 14.808593,3.60156 l 7.308594,-7.13281 0,7.13281 c 0,6.08947 0.383564,7.13477 2.615235,7.13477 1.437863,0 2.613281,0.70503 2.613281,1.56641 0,2.02942 2.581705,1.92106 5.882812,-0.2461 1.437864,-0.94395 5.702174,-5.30354 9.476563,-9.6875 5.50129,-6.38975 6.861328,-7.3502 6.861328,-4.84766 0,5.78107 3.695113,10.08204 8.658203,10.08204 2.522767,0 5.810059,-0.78452 7.306641,-1.74414 4.557694,-2.92246 11.124794,-11.62968 14.207034,-18.83594 1.60613,-3.75515 3.07267,-6.12113 3.25976,-5.25977 0.18711,0.86136 0.6871,4.05829 1.10938,7.10547 1.88267,13.58563 20.55464,14.68422 26.22656,1.54297 1.09432,-2.53542 2.9031,-9.39585 4.01953,-15.24414 3.67678,-19.26029 13.92502,-54.22005 23.08594,-78.75781 1.76869,-4.7375 3.88415,-10.55313 4.70117,-12.92188 1.0393,-3.01319 2.4307,-4.30664 4.63281,-4.30664 2.54389,0 3.27377,0.9761 3.8086,5.08984 0.36396,2.79944 0.13792,5.75984 -0.50391,6.57813 -0.64182,0.8183 -1.16797,2.84979 -1.16797,4.51367 0,2.61961 0.69356,2.91273 5.16992,2.19336 5.04259,-0.81034 5.15265,-0.7258 4.46289,3.40625 -1.01165,6.06035 2.35944,9.15067 7.46485,6.8418 2.85579,-1.29149 3.81427,-1.26732 3.80664,0.0957 -0.0141,2.51761 -6.2367,5.75073 -8.9082,4.62891 -1.69768,-0.71292 -1.85385,-0.47974 -0.68946,1.0332 0.82677,1.07428 3.62084,1.95313 6.20899,1.95313 3.32707,0 4.70703,0.69376 4.70703,2.36718 0,1.85678 -0.98712,2.14461 -4.57617,1.33789 -2.54695,-0.57247 -4.57422,-0.38568 -4.57422,0.41993 0,2.37754 13.98427,8.09179 19.80273,8.09179 2.04951,0 3.72656,0.61397 3.72656,1.36524 0,2.18998 10.28483,3.55316 13.11524,1.73828 2.01614,-1.29277 2.57031,-1.14932 2.57031,0.66406 0,1.27151 0.67503,2.81101 1.5,3.42188 2.8623,2.11947 12.22926,1.92321 15.16602,-0.31836 1.6176,-1.23466 2.9414,-1.58004 2.9414,-0.76563 0,2.76296 9.1553,5.16505 16.07422,4.2168 3.7401,-0.51259 8.27103,-0.81611 10.06836,-0.67383 1.79733,0.14237 7.87525,0.31993 13.50586,0.39453 8.50045,0.11264 10.53334,-0.35131 11.98633,-2.73437 1.68287,-2.76006 1.8056,-2.74757 3.17773,0.32422 2.23687,5.00769 8.81487,5.62612 17.66211,1.66015 6.35412,-2.84839 8.15339,-3.11462 10.27735,-1.52539 5.33792,3.99402 24.43359,0.23122 24.43359,-4.81445 0,-1.78026 4.85294,-1.81804 5.76758,-0.0449 0.38088,0.7384 3.69352,1.76832 7.36328,2.28906 7.68595,1.09062 15.86027,-2.0506 18.91016,-7.26758 1.86729,-3.19411 2.03824,-3.20594 8.13476,-0.58789 6.56357,2.81859 11.75196,3.29177 18.45508,1.68555 3.0953,-0.74171 4.43577,-2.22629 5.6543,-6.26368 1.86263,-6.17152 2.73038,-6.34495 10.875,-2.16211 3.35346,1.72225 9.29662,3.50398 13.20703,3.95899 8.6997,1.01224 9.82938,-0.98098 6.01953,-10.62109 -2.18519,-5.52923 -2.3093,-6.73649 -0.73242,-7.16993 1.04285,-0.28666 3.25461,0.54532 4.91601,1.84961 3.688,2.89519 14.90991,6.69042 23.38867,7.91016 7.12971,1.02567 7.10649,0.0987 -0.18945,-7.5625 -10.3155,-10.83189 -10.20464,-13.11477 0.42188,-8.73438 8.38261,3.45542 29.41725,8.38834 30.45703,7.14258 0.96723,-1.15886 0.9183,-1.19215 -9.07227,-6.16406 -9.77296,-4.86361 -13.93774,-8.03109 -12.62695,-9.60156 0.48616,-0.58247 8.40735,0.10298 17.60156,1.52344 15.46162,2.38877 17.3664,2.3912 25.39063,0.0352 C 542.1026,224.50058 550,219.76876 550,217.01562 c 0,-2.06074 -0.8534,-2.01372 -10.70312,0.59766 -4.53793,1.2031 -15.43802,2.60629 -24.22266,3.11719 -15.88336,0.92377 -16.03251,0.90032 -26.79688,-4.30274 -10.19261,-4.9267 -32.47543,-18.23193 -35.56054,-21.23242 -0.77332,-0.75211 -4.34675,-3.28879 -7.94141,-5.63867 -8.91372,-5.827 -9.45459,-6.60517 -6.4668,-9.3125 2.44143,-2.21227 2.40151,-2.30767 -1.01953,-2.35547 -5.38946,-0.0753 -16.34221,-5.31086 -41.62304,-19.90039 -7.72532,-4.45827 -14.49001,-7.63096 -15.03125,-7.04883 -0.54122,0.58214 -0.6365,0.32697 -0.21289,-0.56836 0.4236,-0.89535 -1.88316,-3.31519 -5.12696,-5.37695 l -5.89844,-3.74805 3.04883,-2.91992 c 1.67733,-1.60613 7.1626,-6.23472 12.18946,-10.28515 l 9.14062,-7.36524 14.91406,-0.36719 c 15.44429,-0.38131 18.16933,-0.95631 12.98243,-2.74023 -1.67179,-0.57496 -6.27634,-3.04639 -10.23047,-5.49219 -3.95413,-2.44579 -9.41028,-4.94151 -12.125,-5.54492 -4.09046,-0.90921 -4.66942,-1.4805 -3.38282,-3.33789 1.26337,-1.82387 0.24968,-3.707269 -5.44531,-10.113282 -3.84904,-4.329569 -8.62698,-8.88021 -10.61719,-10.113281 -6.68081,-4.139218 -21.26958,-7.335481 -33.52148,-7.34375 -10.2058,-0.0063 -12.08974,-0.393109 -11.76367,-2.40625 0.21355,-1.318436 2.1518,-3.097938 4.30859,-3.955078 4.79506,-1.905616 6.19993,-3.936971 11.00391,-15.927735 4.5526,-11.363382 9.45142,-37.908334 7.73242,-41.894531 -1.39752,-3.2407537 -2.86362,-3.4576804 -5.29883,-0.783203 -0.98038,1.076704 -2.9343,2.740184 -4.3418,3.695312 -1.4075,0.955129 -4.6185,6.593518 -7.13476,12.529297 -2.51626,5.935778 -4.76929,11.142937 -5.00781,11.572266 -0.23851,0.429327 -1.29543,-0.628237 -2.34766,-2.349609 -1.48912,-2.436023 -1.71793,-5.79953 -1.03711,-15.171875 1.37147,-18.8803779 -0.73957,-23.8208875 -8.20508,-19.2050785 -8.39128,5.1881964 -9.53942,7.2149939 -10.41015,18.3867185 -0.77146,9.898025 -0.97041,10.422426 -3.08204,8.132813 C 309.52411,26.89995 307.21061,20.874844 305.625,14.855469 302.99179,4.8591218 299.87615,-0.02624249 295.90234,0 Z" />
  <path
     style="fill:#ffa800;fill-opacity:1"
     d="m 359.54833,161.93112 c 2.15679,-1.44526 8.62718,-4.50757 14.37864,-6.80516 l 10.4572,-4.17744 -5.2286,-2.98647 c -2.87573,-1.64257 -9.05201,-5.96249 -13.72507,-9.59982 -11.28977,-8.78754 -13.03667,-9.18703 -19.83057,-4.53497 -3.11236,2.13116 -8.8117,4.34237 -12.66519,4.9138 -3.85351,0.57144 -8.30309,2.05694 -9.88795,3.30113 -1.58488,1.24418 -7.43173,3.65642 -12.993,5.36054 -11.56942,3.54516 -12.09877,3.84749 -13.9351,7.9585 -1.15701,2.59018 -0.9202,3.0231 1.62691,2.97427 1.63955,-0.0315 6.10048,0.64289 9.91321,1.49852 3.8127,0.85561 7.66362,1.21938 8.55759,0.80836 0.89397,-0.41101 5.90092,0.33028 11.12656,1.64731 12.69901,3.20055 27.13385,3.03983 32.20537,-0.35857 z M 245.54565,80.81986 c 4.15922,-2.903162 12.17417,-7.773384 17.81103,-10.822717 8.7296,-4.722402 11.66492,-5.544241 19.80201,-5.544241 10.96926,0 17.69806,3.132148 25.38223,11.815019 4.13599,4.673532 5.67471,5.412248 11.27345,5.412248 6.9658,0 9.41012,-2.704379 6.38783,-7.067463 -1.31923,-1.904499 -1.21266,-2.329228 0.58447,-2.329228 2.76357,0 1.39629,-2.835303 -2.33156,-4.834929 -1.54776,-0.830221 -4.72383,-3.181538 -7.05792,-5.225146 -3.82969,-3.353076 -5.68473,-3.73578 -19.01018,-3.92189 -8.87555,-0.123961 -18.53612,0.743861 -24.2159,2.17534 -15.99757,4.03189 -37.86407,18.221506 -38.10492,24.727076 -0.0707,1.910432 1.50697,1.180773 9.47946,-4.384069 z"
     id="path5964"
     inkscape:connector-curvature="0" />
  <path
     sodipodi:type="inkscape:offset"
     inkscape:radius="0"
     inkscape:original="M 295.90234 0 C 293.51806 0.015745495 290.82523 1.800106 287.74219 5.3085938 C 285.27535 8.1158566 285.0867 9.3397971 286.10938 15.898438 C 286.74536 19.97712 286.9968 23.633753 286.66992 24.025391 C 285.78763 25.082472 275.66397 15.127484 274.13086 11.695312 C 273.40283 10.065472 271.02327 7.6276983 268.84375 6.2773438 C 265.62511 4.2831642 264.03769 4.1540138 260.38672 5.5976562 C 255.52674 7.5193598 254.6856 10.960855 257.16602 18.777344 C 257.86716 20.986827 258.17648 22.794922 257.85352 22.794922 C 257.53056 22.794922 252.82395 20.679793 247.39453 18.095703 C 232.21412 10.870704 227.82292 12.228995 228.6543 23.890625 L 229.07812 29.841797 L 219.08398 29.296875 C 210.3248 28.819157 208.75126 29.157305 206.34766 32.037109 C 204.83932 33.84428 203.60547 37.00906 203.60547 39.070312 C 203.60547 43.179547 201.455 44.720703 195.7168 44.720703 C 189.73176 44.720703 185.73544 47.763421 183.33008 54.154297 C 181.52151 58.959565 180.20219 60.298791 176.43945 61.144531 C 171.33282 62.292337 164.39064 69.964353 164.39062 74.460938 C 164.39062 75.993514 163.06682 78.312228 161.44922 79.613281 C 155.48542 84.410042 152.62695 88.765014 152.62695 93.048828 C 152.62695 95.755338 151.37453 98.705729 149.32031 100.8457 C 147.50237 102.73952 145.66934 106.36489 145.24609 108.90039 C 144.82284 111.43589 143.07833 114.60744 141.36914 115.94922 C 139.65994 117.29099 137.40679 120.84198 136.36133 123.83984 C 135.31587 126.83771 133.887 129.28906 133.1875 129.28906 C 132.48799 129.28906 130.21648 133.36578 128.13867 138.34766 C 123.6837 149.02907 123.28171 160.20653 127.16797 165.35156 C 131.59775 171.21615 128.22584 172.35742 106.48047 172.35742 C 83.896267 172.35742 83.337019 172.59161 76.542969 184.88086 C 73.608178 190.18936 70.667279 193.27965 66.4375 195.49805 C 57.411905 200.23171 53.571145 204.02684 52.634766 209.13477 C 51.934228 212.95617 49.976989 214.91727 41.40625 220.38867 C 28.295834 228.75812 25.238281 232.5508 25.238281 240.44531 C 25.238281 245.44109 24.587179 246.9549 21.496094 249.14258 C 13.753953 254.62204 8.8398438 261.0161 8.8398438 265.61133 C 8.8398438 268.05535 9.4499453 270.50666 10.195312 271.05859 C 10.944937 271.61367 8.901401 274.48736 5.6210938 277.48828 C -0.94360979 283.49386 -1.0575809 283.80252 1.7167969 288.19922 C 3.6499978 291.26285 3.68747 291.26285 8.4765625 288.19922 C 11.125308 286.50478 14.790175 283.63823 16.621094 281.82812 C 20.935712 277.56252 25.835607 274.49084 25.824219 276.05859 C 25.819019 276.73491 23.656346 279.04972 21.017578 281.20312 C 14.758475 286.31095 0.99804688 302.16863 0.99804688 304.27344 C 0.99804688 306.35046 9.4290254 308.31033 12.818359 307.02148 C 16.218589 305.72848 16.070152 306.33207 11.455078 312.52539 C 4.4135057 321.97501 6.8379405 324.59884 16.498047 317.98242 C 21.235 314.738 22.030348 314.5427 21.214844 316.82617 C 19.88495 320.54995 15.375 336.31999 15.375 337.24805 C 15.375 339.29166 25.298151 335.69443 27.976562 332.67969 C 31.82181 328.3516 32.507225 329.11916 31.166016 336.24414 C 28.800933 348.8081 35.198416 350.36301 45.974609 339.8457 L 53.283203 332.71289 L 53.283203 339.8457 C 53.283203 345.93517 53.666766 346.98047 55.898438 346.98047 C 57.336301 346.98047 58.511719 347.6855 58.511719 348.54688 C 58.511719 350.5763 61.093424 350.46794 64.394531 348.30078 C 65.832395 347.35683 70.096705 342.99724 73.871094 338.61328 C 79.372384 332.22353 80.732422 331.26308 80.732422 333.76562 C 80.732422 339.54669 84.427535 343.84766 89.390625 343.84766 C 91.913392 343.84766 95.200684 343.06314 96.697266 342.10352 C 101.25496 339.18106 107.82206 330.47384 110.9043 323.26758 C 112.51043 319.51243 113.97697 317.14645 114.16406 318.00781 C 114.35117 318.86917 114.85116 322.0661 115.27344 325.11328 C 117.15611 338.69891 135.82808 339.7975 141.5 326.65625 C 142.59432 324.12083 144.4031 317.2604 145.51953 311.41211 C 149.19631 292.15182 159.44455 257.19206 168.60547 232.6543 C 170.37416 227.9168 172.48962 222.10117 173.30664 219.73242 C 174.34594 216.71923 175.73734 215.42578 177.93945 215.42578 C 180.48334 215.42578 181.21322 216.40188 181.74805 220.51562 C 182.11201 223.31506 181.88597 226.27546 181.24414 227.09375 C 180.60232 227.91205 180.07617 229.94354 180.07617 231.60742 C 180.07617 234.22703 180.76973 234.52015 185.24609 233.80078 C 190.28868 232.99044 190.39874 233.07498 189.70898 237.20703 C 188.69733 243.26738 192.06842 246.3577 197.17383 244.04883 C 200.02962 242.75734 200.9881 242.78151 200.98047 244.14453 C 200.96637 246.66214 194.74377 249.89526 192.07227 248.77344 C 190.37459 248.06052 190.21842 248.2937 191.38281 249.80664 C 192.20958 250.88092 195.00365 251.75977 197.5918 251.75977 C 200.91887 251.75977 202.29883 252.45353 202.29883 254.12695 C 202.29883 255.98373 201.31171 256.27156 197.72266 255.46484 C 195.17571 254.89237 193.14844 255.07916 193.14844 255.88477 C 193.14844 258.26231 207.13271 263.97656 212.95117 263.97656 C 215.00068 263.97656 216.67773 264.59053 216.67773 265.3418 C 216.67773 267.53178 226.96256 268.89496 229.79297 267.08008 C 231.80911 265.78731 232.36328 265.93076 232.36328 267.74414 C 232.36328 269.01565 233.03831 270.55515 233.86328 271.16602 C 236.72558 273.28549 246.09254 273.08923 249.0293 270.84766 C 250.6469 269.613 251.9707 269.26762 251.9707 270.08203 C 251.9707 272.84499 261.126 275.24708 268.04492 274.29883 C 271.78502 273.78624 276.31595 273.48272 278.11328 273.625 C 279.91061 273.76737 285.98853 273.94493 291.61914 274.01953 C 300.11959 274.13217 302.15248 273.66822 303.60547 271.28516 C 305.28834 268.5251 305.41107 268.53759 306.7832 271.60938 C 309.02007 276.61707 315.59807 277.2355 324.44531 273.26953 C 330.79943 270.42114 332.5987 270.15491 334.72266 271.74414 C 340.06058 275.73816 359.15625 271.97536 359.15625 266.92969 C 359.15625 265.14943 364.00919 265.11165 364.92383 266.88477 C 365.30471 267.62317 368.61735 268.65309 372.28711 269.17383 C 379.97306 270.26445 388.14738 267.12323 391.19727 261.90625 C 393.06456 258.71214 393.23551 258.70031 399.33203 261.31836 C 405.8956 264.13695 411.08399 264.61013 417.78711 263.00391 C 420.88241 262.2622 422.22288 260.77762 423.44141 256.74023 C 425.30404 250.56871 426.17179 250.39528 434.31641 254.57812 C 437.66987 256.30037 443.61303 258.0821 447.52344 258.53711 C 456.22314 259.54935 457.35282 257.55613 453.54297 247.91602 C 451.35778 242.38679 451.23367 241.17953 452.81055 240.74609 C 453.8534 240.45943 456.06516 241.29141 457.72656 242.5957 C 461.41456 245.49089 472.63647 249.28612 481.11523 250.50586 C 488.24494 251.53153 488.22172 250.60453 480.92578 242.94336 C 470.61028 232.11147 470.72114 229.82859 481.34766 234.20898 C 489.73027 237.6644 510.76491 242.59732 511.80469 241.35156 C 512.77192 240.1927 512.72299 240.15941 502.73242 235.1875 C 492.95946 230.32389 488.79468 227.15641 490.10547 225.58594 C 490.59163 225.00347 498.51282 225.68892 507.70703 227.10938 C 523.16865 229.49815 525.07343 229.50058 533.09766 227.14453 C 542.1026 224.50058 550 219.76876 550 217.01562 C 550 214.95488 549.1466 215.0019 539.29688 217.61328 C 534.75895 218.81638 523.85886 220.21957 515.07422 220.73047 C 499.19086 221.65424 499.04171 221.63079 488.27734 216.42773 C 478.08473 211.50103 455.80191 198.1958 452.7168 195.19531 C 451.94348 194.4432 448.37005 191.90652 444.77539 189.55664 C 435.86167 183.72964 435.3208 182.95147 438.30859 180.24414 C 440.75002 178.03187 440.7101 177.93647 437.28906 177.88867 C 431.8996 177.81337 420.94685 172.57781 395.66602 157.98828 C 387.9407 153.53001 381.17601 150.35732 380.63477 150.93945 C 380.09355 151.52159 379.99826 151.26642 380.42188 150.37109 C 380.84548 149.47574 378.53872 147.0559 375.29492 144.99414 L 369.39648 141.24609 L 372.44531 138.32617 C 374.12264 136.72004 379.60791 132.09145 384.63477 128.04102 L 393.77539 120.67578 L 408.68945 120.30859 C 424.13374 119.92728 426.85878 119.35228 421.67188 117.56836 C 420.00009 116.9934 415.39554 114.52197 411.44141 112.07617 C 407.48728 109.63038 402.03113 107.13466 399.31641 106.53125 C 395.22595 105.62204 394.64699 105.05075 395.93359 103.19336 C 397.19696 101.36949 396.18327 99.486091 390.48828 93.080078 C 386.63924 88.750509 381.8613 84.199868 379.87109 82.966797 C 373.19028 78.827579 358.60151 75.631316 346.34961 75.623047 C 336.14381 75.616747 334.25987 75.229938 334.58594 73.216797 C 334.79949 71.898361 336.73774 70.118859 338.89453 69.261719 C 343.68959 67.356103 345.09446 65.324748 349.89844 53.333984 C 354.45104 41.970602 359.34986 15.42565 357.63086 11.439453 C 356.23334 8.1986994 354.76724 7.9817726 352.33203 10.65625 C 351.35165 11.732954 349.39773 13.396434 347.99023 14.351562 C 346.58273 15.306692 343.37173 20.94508 340.85547 26.880859 C 338.33921 32.816637 336.08618 38.023796 335.84766 38.453125 C 335.60915 38.882452 334.55223 37.824888 333.5 36.103516 C 332.01088 33.667493 331.78207 30.303986 332.46289 20.931641 C 333.83436 2.0512627 331.72332 -2.8892465 324.25781 1.7265625 C 315.86653 6.9147589 314.71839 8.9415567 313.84766 20.113281 C 313.0762 30.011306 312.87725 30.535707 310.76562 28.246094 C 309.52411 26.89995 307.21061 20.874844 305.625 14.855469 C 302.99179 4.8591216 299.87615 -0.026242491 295.90234 0 z "
     xlink:href="#path6086"
     style="fill:#ffffff;fill-opacity:0.87058824;filter:url(#filter6124)"
     id="path6092"
     inkscape:href="#path6086"
     d="m 295.90234,0 c -2.38428,0.0157455 -5.07711,1.800106 -8.16015,5.3085938 -2.46684,2.8072628 -2.65549,4.0312033 -1.63281,10.5898442 0.63598,4.078682 0.88742,7.735315 0.56054,8.126953 -0.88229,1.057081 -11.00595,-8.897907 -12.53906,-12.330079 -0.72803,-1.62984 -3.10759,-4.0676137 -5.28711,-5.4179682 -3.21864,-1.9941796 -4.80606,-2.12333 -8.45703,-0.6796876 -4.85998,1.9217036 -5.70112,5.3631988 -3.2207,13.1796878 0.70114,2.209483 1.01046,4.017578 0.6875,4.017578 -0.32296,0 -5.02957,-2.115129 -10.45899,-4.699219 -15.18041,-7.224999 -19.57161,-5.866708 -18.74023,5.794922 l 0.42382,5.951172 -9.99414,-0.544922 c -8.75918,-0.477718 -10.33272,-0.13957 -12.73632,2.740234 -1.50834,1.807171 -2.74219,4.971951 -2.74219,7.033203 0,4.109235 -2.15047,5.650391 -7.88867,5.650391 -5.98504,0 -9.98136,3.042718 -12.38672,9.433594 -1.80857,4.805268 -3.12789,6.144494 -6.89063,6.990234 -5.10663,1.147806 -12.04881,8.819822 -12.04883,13.316407 0,1.532576 -1.3238,3.85129 -2.9414,5.152343 -5.9638,4.796761 -8.82227,9.151733 -8.82227,13.435547 0,2.70651 -1.25242,5.656901 -3.30664,7.796872 -1.81794,1.89382 -3.65097,5.51919 -4.07422,8.05469 -0.42325,2.5355 -2.16776,5.70705 -3.87695,7.04883 -1.7092,1.34177 -3.96235,4.89276 -5.00781,7.89062 -1.04546,2.99787 -2.47433,5.44922 -3.17383,5.44922 -0.69951,0 -2.97102,4.07672 -5.04883,9.0586 -4.45497,10.68141 -4.85696,21.85887 -0.9707,27.0039 4.42978,5.86459 1.05787,7.00586 -20.6875,7.00586 -22.584203,0 -23.143451,0.23419 -29.937501,12.52344 -2.934791,5.3085 -5.87569,8.39879 -10.105469,10.61719 -9.025595,4.73366 -12.866355,8.52879 -13.802734,13.63672 -0.700538,3.8214 -2.657777,5.7825 -11.228516,11.2539 -13.110416,8.36945 -16.167969,12.16213 -16.167969,20.05664 0,4.99578 -0.651102,6.50959 -3.742187,8.69727 -7.742141,5.47946 -12.6562502,11.87352 -12.6562502,16.46875 0,2.44402 0.6101015,4.89533 1.3554682,5.44726 0.749625,0.55508 -1.293911,3.42877 -4.5742182,6.42969 -6.56470359,6.00558 -6.6786747,6.31424 -3.9042969,10.71094 1.9332009,3.06363 1.9706731,3.06363 6.7597656,0 2.6487455,-1.69444 6.3136125,-4.56099 8.1445315,-6.3711 4.314618,-4.2656 9.214513,-7.33728 9.203125,-5.76953 -0.0052,0.67632 -2.167873,2.99113 -4.806641,5.14453 -6.259103,5.10783 -20.01953112,20.96551 -20.01953112,23.07032 0,2.07702 8.43097852,4.03689 11.82031212,2.74804 3.40023,-1.293 3.251793,-0.68941 -1.363281,5.50391 -7.0415723,9.44962 -4.6171375,12.07345 5.042969,5.45703 4.736953,-3.24442 5.532301,-3.43972 4.716797,-1.15625 -1.329894,3.72378 -5.839844,19.49382 -5.839844,20.42188 0,2.04361 9.923151,-1.55362 12.601562,-4.56836 3.845248,-4.32809 4.530663,-3.56053 3.189454,3.56445 -2.365083,12.56396 4.0324,14.11887 14.808593,3.60156 l 7.308594,-7.13281 0,7.13281 c 0,6.08947 0.383563,7.13477 2.615235,7.13477 1.437863,0 2.613281,0.70503 2.613281,1.56641 0,2.02942 2.581705,1.92106 5.882812,-0.2461 1.437864,-0.94395 5.702174,-5.30354 9.476563,-9.6875 5.50129,-6.38975 6.861328,-7.3502 6.861328,-4.84766 0,5.78107 3.695113,10.08204 8.658203,10.08204 2.522767,0 5.810059,-0.78452 7.306641,-1.74414 4.557694,-2.92246 11.124794,-11.62968 14.207034,-18.83594 1.60613,-3.75515 3.07267,-6.12113 3.25976,-5.25977 0.18711,0.86136 0.6871,4.05829 1.10938,7.10547 1.88267,13.58563 20.55464,14.68422 26.22656,1.54297 1.09432,-2.53542 2.9031,-9.39585 4.01953,-15.24414 3.67678,-19.26029 13.92502,-54.22005 23.08594,-78.75781 1.76869,-4.7375 3.88415,-10.55313 4.70117,-12.92188 1.0393,-3.01319 2.4307,-4.30664 4.63281,-4.30664 2.54389,0 3.27377,0.9761 3.8086,5.08984 0.36396,2.79944 0.13792,5.75984 -0.50391,6.57813 -0.64182,0.8183 -1.16797,2.84979 -1.16797,4.51367 0,2.61961 0.69356,2.91273 5.16992,2.19336 5.04259,-0.81034 5.15265,-0.7258 4.46289,3.40625 -1.01165,6.06035 2.35944,9.15067 7.46485,6.8418 2.85579,-1.29149 3.81427,-1.26732 3.80664,0.0957 -0.0141,2.51761 -6.2367,5.75073 -8.9082,4.62891 -1.69768,-0.71292 -1.85385,-0.47974 -0.68946,1.0332 0.82677,1.07428 3.62084,1.95313 6.20899,1.95313 3.32707,0 4.70703,0.69376 4.70703,2.36718 0,1.85678 -0.98712,2.14461 -4.57617,1.33789 -2.54695,-0.57247 -4.57422,-0.38568 -4.57422,0.41993 0,2.37754 13.98427,8.09179 19.80273,8.09179 2.04951,0 3.72656,0.61397 3.72656,1.36524 0,2.18998 10.28483,3.55316 13.11524,1.73828 2.01614,-1.29277 2.57031,-1.14932 2.57031,0.66406 0,1.27151 0.67503,2.81101 1.5,3.42188 2.8623,2.11947 12.22926,1.92321 15.16602,-0.31836 1.6176,-1.23466 2.9414,-1.58004 2.9414,-0.76563 0,2.76296 9.1553,5.16505 16.07422,4.2168 3.7401,-0.51259 8.27103,-0.81611 10.06836,-0.67383 1.79733,0.14237 7.87525,0.31993 13.50586,0.39453 8.50045,0.11264 10.53334,-0.35131 11.98633,-2.73437 1.68287,-2.76006 1.8056,-2.74757 3.17773,0.32422 2.23687,5.00769 8.81487,5.62612 17.66211,1.66015 6.35412,-2.84839 8.15339,-3.11462 10.27735,-1.52539 5.33792,3.99402 24.43359,0.23122 24.43359,-4.81445 0,-1.78026 4.85294,-1.81804 5.76758,-0.0449 0.38088,0.7384 3.69352,1.76832 7.36328,2.28906 7.68595,1.09062 15.86027,-2.0506 18.91016,-7.26758 1.86729,-3.19411 2.03824,-3.20594 8.13476,-0.58789 6.56357,2.81859 11.75196,3.29177 18.45508,1.68555 3.0953,-0.74171 4.43577,-2.22629 5.6543,-6.26368 1.86263,-6.17152 2.73038,-6.34495 10.875,-2.16211 3.35346,1.72225 9.29662,3.50398 13.20703,3.95899 8.6997,1.01224 9.82938,-0.98098 6.01953,-10.62109 -2.18519,-5.52923 -2.3093,-6.73649 -0.73242,-7.16993 1.04285,-0.28666 3.25461,0.54532 4.91601,1.84961 3.688,2.89519 14.90991,6.69042 23.38867,7.91016 7.12971,1.02567 7.10649,0.0987 -0.18945,-7.5625 -10.3155,-10.83189 -10.20464,-13.11477 0.42188,-8.73438 8.38261,3.45542 29.41725,8.38834 30.45703,7.14258 0.96723,-1.15886 0.9183,-1.19215 -9.07227,-6.16406 -9.77296,-4.86361 -13.93774,-8.03109 -12.62695,-9.60156 0.48616,-0.58247 8.40735,0.10298 17.60156,1.52344 15.46162,2.38877 17.3664,2.3912 25.39063,0.0352 C 542.1026,224.50058 550,219.76876 550,217.01562 c 0,-2.06074 -0.8534,-2.01372 -10.70312,0.59766 -4.53793,1.2031 -15.43802,2.60629 -24.22266,3.11719 -15.88336,0.92377 -16.03251,0.90032 -26.79688,-4.30274 -10.19261,-4.9267 -32.47543,-18.23193 -35.56054,-21.23242 -0.77332,-0.75211 -4.34675,-3.28879 -7.94141,-5.63867 -8.91372,-5.827 -9.45459,-6.60517 -6.4668,-9.3125 2.44143,-2.21227 2.40151,-2.30767 -1.01953,-2.35547 -5.38946,-0.0753 -16.34221,-5.31086 -41.62304,-19.90039 -7.72532,-4.45827 -14.49001,-7.63096 -15.03125,-7.04883 -0.54122,0.58214 -0.63651,0.32697 -0.21289,-0.56836 0.4236,-0.89535 -1.88316,-3.31519 -5.12696,-5.37695 l -5.89844,-3.74805 3.04883,-2.91992 c 1.67733,-1.60613 7.1626,-6.23472 12.18946,-10.28515 l 9.14062,-7.36524 14.91406,-0.36719 c 15.44429,-0.38131 18.16933,-0.95631 12.98243,-2.74023 -1.67179,-0.57496 -6.27634,-3.04639 -10.23047,-5.49219 -3.95413,-2.44579 -9.41028,-4.94151 -12.125,-5.54492 -4.09046,-0.90921 -4.66942,-1.4805 -3.38282,-3.33789 1.26337,-1.82387 0.24968,-3.707269 -5.44531,-10.113282 -3.84904,-4.329569 -8.62698,-8.88021 -10.61719,-10.113281 -6.68081,-4.139218 -21.26958,-7.335481 -33.52148,-7.34375 -10.2058,-0.0063 -12.08974,-0.393109 -11.76367,-2.40625 0.21355,-1.318436 2.1518,-3.097938 4.30859,-3.955078 4.79506,-1.905616 6.19993,-3.936971 11.00391,-15.927735 4.5526,-11.363382 9.45142,-37.908334 7.73242,-41.894531 -1.39752,-3.2407536 -2.86362,-3.4576804 -5.29883,-0.783203 -0.98038,1.076704 -2.9343,2.740184 -4.3418,3.695312 -1.4075,0.95513 -4.6185,6.593518 -7.13476,12.529297 -2.51626,5.935778 -4.76929,11.142937 -5.00781,11.572266 -0.23851,0.429327 -1.29543,-0.628237 -2.34766,-2.349609 -1.48912,-2.436023 -1.71793,-5.79953 -1.03711,-15.171875 1.37147,-18.8803783 -0.73957,-23.8208875 -8.20508,-19.2050785 -8.39128,5.1881964 -9.53942,7.2149942 -10.41015,18.3867185 -0.77146,9.898025 -0.97041,10.422426 -3.08204,8.132813 C 309.52411,26.89995 307.21061,20.874844 305.625,14.855469 302.99179,4.8591216 299.87615,-0.02624249 295.90234,0 Z" />
</svg>
