<?xml version="1.0" encoding="UTF-8" standalone="no"?>
<!-- Created with Inkscape (http://www.inkscape.org/) -->

<svg
   xmlns:dc="http://purl.org/dc/elements/1.1/"
   xmlns:cc="http://creativecommons.org/ns#"
   xmlns:rdf="http://www.w3.org/1999/02/22-rdf-syntax-ns#"
   xmlns:svg="http://www.w3.org/2000/svg"
   xmlns="http://www.w3.org/2000/svg"
   xmlns:xlink="http://www.w3.org/1999/xlink"
   xmlns:sodipodi="http://sodipodi.sourceforge.net/DTD/sodipodi-0.dtd"
   xmlns:inkscape="http://www.inkscape.org/namespaces/inkscape"
   id="svg4389"
   version="1.1"
   inkscape:version="0.91 r13725"
   width="601.3017"
   height="350.00046"
   viewBox="0 0 601.3017 350.00046"
   sodipodi:docname="blackbird3-outlinesvg.svg"
   inkscape:export-filename="/home/jrahm/projects/jarahm-templ/favicon.png"
   inkscape:export-xdpi="18.499996"
   inkscape:export-ydpi="18.499996">
  <metadata
     id="metadata4395">
    <rdf:RDF>
      <cc:Work
         rdf:about="">
        <dc:format>image/svg+xml</dc:format>
        <dc:type
           rdf:resource="http://purl.org/dc/dcmitype/StillImage" />
        <dc:title></dc:title>
      </cc:Work>
    </rdf:RDF>
  </metadata>
  <defs
     id="defs4393">
    <linearGradient
       inkscape:collect="always"
       id="linearGradient6777">
      <stop
         style="stop-color:#000000;stop-opacity:1;"
         offset="0"
         id="stop6779" />
      <stop
         style="stop-color:#000000;stop-opacity:0;"
         offset="1"
         id="stop6781" />
    </linearGradient>
    <filter
       style="color-interpolation-filters:sRGB"
       inkscape:label="Feather"
       id="filter6124">
      <feGaussianBlur
         stdDeviation="11.0844"
         result="blur"
         id="feGaussianBlur6126" />
      <feComposite
         in="SourceGraphic"
         in2="blur"
         operator="atop"
         result="composite1"
         id="feComposite6128" />
      <feComposite
         in2="composite1"
         operator="in"
         result="composite2"
         id="feComposite6130" />
      <feComposite
         in2="composite2"
         operator="in"
         result="fbSourceGraphic"
         id="feComposite6132" />
      <feColorMatrix
         result="fbSourceGraphicAlpha"
         in="fbSourceGraphic"
         values="0 0 0 -1 0 0 0 0 -1 0 0 0 0 -1 0 0 0 0 1 0"
         id="feColorMatrix6134" />
      <feGaussianBlur
         id="feGaussianBlur6136"
         stdDeviation="11.08"
         result="blur"
         in="fbSourceGraphic" />
      <feComposite
         id="feComposite6138"
         in2="blur"
         in="fbSourceGraphic"
         operator="atop"
         result="composite1" />
      <feComposite
         id="feComposite6140"
         in2="composite1"
         operator="in"
         result="composite2" />
      <feComposite
         id="feComposite6142"
         in2="composite2"
         operator="in"
         result="composite3" />
    </filter>
    <linearGradient
       inkscape:collect="always"
       xlink:href="#linearGradient6777"
       id="linearGradient6783"
       x1="399"
       y1="107"
       x2="76"
       y2="301"
       gradientUnits="userSpaceOnUse"
       gradientTransform="translate(2.730657e-5,1.0515553e-4)" />
  </defs>
  <sodipodi:namedview
     pagecolor="#ffffff"
     bordercolor="#666666"
     borderopacity="1"
     objecttolerance="10"
     gridtolerance="10"
     guidetolerance="10"
     inkscape:pageopacity="0"
     inkscape:pageshadow="2"
     inkscape:window-width="1863"
     inkscape:window-height="1053"
     id="namedview4391"
     showgrid="false"
     inkscape:zoom="1.4142136"
     inkscape:cx="266.16484"
     inkscape:cy="233.46224"
     inkscape:window-x="57"
     inkscape:window-y="0"
     inkscape:window-maximized="1"
     inkscape:current-layer="svg4389"
     fit-margin-top="0"
     fit-margin-left="0"
     fit-margin-right="0"
     fit-margin-bottom="0" />
  <path
     style="fill:#808080;fill-opacity:0.13966483"
     d="m 402.22073,265.31456 c 4.56502,0.76842 8.22544,1.24089 8.22461,1.24805 0,0 20.39497,4.53152 -7.49414,9.33398 -21.65855,3.72957 17.50977,14.67969 17.50977,14.67969 0,0 98.90246,26.36741 66.94531,30.28516 -29.97221,3.67441 -179.69922,-15.72852 -179.69922,-15.72852 0,0 -19.56712,-3.13197 -59.59375,-20.07226 -40.02664,-16.94029 -43.30664,-1.04102 -43.30664,-1.04102 0,0 -5.70187,24.49106 -28.00586,26.50781 -2.56579,0.23201 -5.15958,0.38914 -7.74414,0.49805 l -2.76953,5.83008 c 4.27394,3.78218 19.46087,5.40407 24.92383,2.03125 1.1872,-0.73297 3.25554,-2.85132 4.5957,-4.70508 4.41357,-6.105 15.97545,-16.77192 26.04492,-24.03125 1.9441,-1.40156 4.27451,-3.12736 5.17969,-3.83594 1.15144,-0.90135 2.58419,-1.17888 4.77148,-0.92383 2.52677,0.29465 3.21346,0.71113 3.58204,2.16797 0.25082,0.9914 -0.0899,1.96875 -0.75977,2.17188 -0.66985,0.20315 -1.27405,0.83034 -1.33984,1.39453 -0.10357,0.88826 0.57414,1.06727 5.04882,1.3418 5.04069,0.30926 5.14732,0.35064 4.29883,1.67187 -1.24447,1.9378 1.9822,3.37714 7.14453,3.18555 2.88764,-0.10716 3.83686,0.0113 3.77539,0.47266 -0.11355,0.85205 -6.42208,1.22886 -9.03125,0.53906 -1.65807,-0.43837 -1.82134,-0.37834 -0.7246,0.26953 0.77871,0.46003 3.51911,1.0811 6.08984,1.38086 3.30468,0.38534 4.64821,0.78218 4.58203,1.34961 -0.0734,0.62961 -1.06661,0.613 -4.59961,-0.0762 -2.50717,-0.48911 -4.52674,-0.66185 -4.55859,-0.38868 -0.094,0.80618 13.57031,4.36321 19.34961,5.03711 2.03572,0.23738 3.67618,0.63978 3.64648,0.89453 -0.0866,0.74257 10.07586,2.39696 12.95898,2.10938 2.0537,-0.20484 2.59905,-0.0915 2.52735,0.52344 -0.0503,0.43115 0.55825,1.02935 1.35351,1.33203 2.75924,1.05019 12.07055,2.06838 15.07618,1.64844 1.65553,-0.2313 2.98532,-0.1941 2.95312,0.082 -0.10924,0.93688 8.88898,2.81119 15.79883,3.29101 3.73519,0.25937 8.24773,0.68305 10.02734,0.93946 1.77961,0.25644 7.80867,1.01983 13.39844,1.69726 8.43879,1.02278 10.47623,1.1007 12.01367,0.46094 1.78067,-0.74098 1.90309,-0.72396 3.14453,0.47656 2.02382,1.9571 8.53206,2.93142 17.47657,2.61133 6.42398,-0.22991 8.2227,-0.11302 10.26953,0.67187 5.14408,1.97254 24.25948,2.90616 24.45898,1.19532 0.0704,-0.60366 4.89209,-0.0529 5.73047,0.65429 0.34912,0.29449 3.59819,1.0273 7.22266,1.62891 7.5911,1.26 15.83467,1.14036 19.07031,-0.27539 1.98102,-0.8668 2.15155,-0.84971 8.10351,0.74414 6.40795,1.71593 11.54412,2.47726 18.26563,2.70898 3.1038,0.107 4.49332,-0.24282 5.86328,-1.4707 2.09412,-1.87694 2.9623,-1.83235 10.88672,0.5293 3.26279,0.97239 9.09483,2.2639 12.96094,2.87109 8.60113,1.35085 9.80344,0.80576 6.40039,-2.9043 -1.95186,-2.12797 -2.02872,-2.55128 -0.44531,-2.51562 1.04717,0.0235 3.21189,0.56063 4.81054,1.19531 3.5487,1.40887 14.5445,3.99697 22.91797,5.39258 7.04117,1.17356 7.05525,0.85691 0.11133,-2.58594 -9.8178,-4.86767 -9.61619,-5.63016 0.76562,-2.91406 8.18957,2.14255 28.88672,6.25316 29.96875,5.95117 1.00654,-0.28092 0.95918,-0.29958 -8.76757,-3.14258 -9.51489,-2.78109 -13.52617,-4.33805 -12.16211,-4.71875 0.50592,-0.1412 8.34569,1.00823 17.42187,2.55469 15.26312,2.60077 17.15536,2.82266 25.21875,2.95313 9.04888,0.14642 17.08061,-0.54302 17.18946,-1.47657 0.0815,-0.69876 -0.76761,-0.77983 -10.6543,-1.03515 -4.55496,-0.11765 -15.43788,-0.90579 -24.1836,-1.75 -15.81299,-1.52639 -15.95911,-1.55149 -26.44531,-4.5625 -9.92922,-2.85108 -31.53671,-9.94363 -34.48242,-11.31836 -0.73838,-0.3446 -4.18846,-1.61693 -7.66602,-2.83008 -8.62334,-3.00823 -9.12941,-3.33624 -6.05468,-3.9082 2.51247,-0.46738 2.4762,-0.50553 -0.91993,-0.91797 -5.35021,-0.64974 -16.02084,-3.69129 -40.55468,-11.56641 -7.49705,-2.40648 -14.09174,-4.26752 -14.65235,-4.13281 -0.5606,0.1347 -0.64367,0.0378 -0.1875,-0.2168 0.45615,-0.25453 -1.74041,-1.3412 -4.88086,-2.41601 l -5.71093,-1.95508 3.14453,-0.63672 c 1.72955,-0.35034 7.36049,-1.28495 12.51367,-2.07617 l 9.37109,-1.43945 14.82813,1.60351 c 15.35542,1.65948 18.08341,1.77987 13.00195,0.57422 -1.6378,-0.38859 -6.11255,-1.75958 -9.94336,-3.04688 -3.83082,-1.2873 -9.15163,-2.76418 -11.82422,-3.2832 -4.02699,-0.78206 -4.57989,-1.04459 -3.22851,-1.52539 1.32698,-0.47211 0.39556,-1.22681 -5.00781,-4.05859 -1.92465,-1.00865 -4.08171,-2.05437 -5.99415,-2.92578 -10.89125,-0.0854 -20.52705,-0.15625 -39.54492,-0.28321 z"
     id="path6086-4"
     inkscape:connector-curvature="0" />
  <path
     style="fill:url(#linearGradient6783);fill-opacity:1"
     d="M 295.90237,1.0515553e-4 C 293.51809,0.01585066 290.82526,1.8002112 287.74222,5.308699 c -2.46684,2.8072628 -2.65549,4.0312033 -1.63281,10.589844 0.63598,4.078682 0.88742,7.735315 0.56054,8.126953 -0.88229,1.057081 -11.00595,-8.897907 -12.53906,-12.330079 -0.72803,-1.62984 -3.10759,-4.0676135 -5.28711,-5.417968 -3.21864,-1.9941796 -4.80606,-2.12333 -8.45703,-0.6796876 -4.85998,1.9217036 -5.70112,5.3631986 -3.2207,13.1796876 0.70114,2.209483 1.01046,4.017578 0.6875,4.017578 -0.32296,0 -5.02957,-2.115129 -10.45899,-4.699219 -15.18041,-7.224999 -19.57161,-5.866708 -18.74023,5.794922 l 0.42382,5.951172 -9.99414,-0.544922 c -8.75918,-0.477718 -10.33272,-0.13957 -12.73632,2.740234 -1.50834,1.807171 -2.74219,4.971951 -2.74219,7.033203 0,4.109235 -2.15047,5.650391 -7.88867,5.650391 -5.98504,0 -9.98136,3.042718 -12.38672,9.433594 -1.80857,4.805268 -3.12789,6.144494 -6.89063,6.990234 -5.10663,1.147806 -12.04881,8.819822 -12.04883,13.316407 0,1.532576 -1.3238,3.85129 -2.9414,5.152343 -5.9638,4.796761 -8.82227,9.151733 -8.82227,13.435547 0,2.70651 -1.25242,5.656901 -3.30664,7.796877 -1.81794,1.89382 -3.65097,5.51919 -4.07422,8.05469 -0.42325,2.5355 -2.16776,5.70705 -3.87695,7.04883 -1.7092,1.34177 -3.96235,4.89276 -5.00781,7.89062 -1.04546,2.99787 -2.47433,5.44922 -3.17383,5.44922 -0.69951,0 -2.97102,4.07672 -5.04883,9.0586 -4.45497,10.68141 -4.85696,21.85887 -0.9707,27.0039 4.42978,5.86459 1.05787,7.00586 -20.6875,7.00586 -22.584206,0 -23.143454,0.23419 -29.937504,12.52344 -2.934791,5.3085 -5.87569,8.39879 -10.105469,10.61719 -9.025595,4.73366 -12.866355,8.52879 -13.802734,13.63672 -0.700538,3.8214 -2.657777,5.7825 -11.228516,11.2539 -13.110416,8.36945 -16.167969,12.16213 -16.167969,20.05664 0,4.99578 -0.651102,6.50959 -3.742187,8.69727 -7.742141,5.47946 -12.6562499,11.87352 -12.6562499,16.46875 0,2.44402 0.6101015,4.89533 1.3554679,5.44726 0.749625,0.55508 -1.2939107,3.42877 -4.5742179,6.42969 -6.56470358,6.00558 -6.6786747,6.31424 -3.9042969,10.71094 1.9332009,3.06363 1.9706731,3.06363 6.7597656,0 2.6487452,-1.69444 6.3136122,-4.56099 8.1445312,-6.3711 4.314618,-4.2656 9.214513,-7.33728 9.203125,-5.76953 -0.0052,0.67632 -2.167873,2.99113 -4.806641,5.14453 -6.259103,5.10783 -20.01953081,20.96551 -20.01953081,23.07032 0,2.07702 8.43097851,4.03689 11.82031181,2.74804 3.40023,-1.293 3.251793,-0.68941 -1.363281,5.50391 -7.041572,9.44962 -4.6171372,12.07345 5.042969,5.45703 4.736953,-3.24442 5.532301,-3.43972 4.716797,-1.15625 -1.329894,3.72378 -5.839844,19.49382 -5.839844,20.42188 0,2.04361 9.923151,-1.55362 12.601562,-4.56836 3.845248,-4.32809 4.530663,-3.56053 3.189454,3.56445 -2.365083,12.56396 4.0324,14.11887 14.808593,3.60156 l 7.308594,-7.13281 0,7.13281 c 0,6.08947 0.383563,7.13477 2.615235,7.13477 1.437863,0 2.613281,0.70503 2.613281,1.56641 0,2.02942 2.581705,1.92106 5.882812,-0.2461 1.437864,-0.94395 5.702174,-5.30354 9.476563,-9.6875 5.50129,-6.38975 6.861328,-7.3502 6.861328,-4.84766 0,5.78107 3.695113,10.08204 8.658203,10.08204 2.522767,0 5.810059,-0.78452 7.306641,-1.74414 4.557697,-2.92246 11.124797,-11.62968 14.207037,-18.83594 1.60613,-3.75515 3.07267,-6.12113 3.25976,-5.25977 0.18711,0.86136 0.6871,4.05829 1.10938,7.10547 1.88267,13.58563 20.55464,14.68422 26.22656,1.54297 1.09432,-2.53542 2.9031,-9.39585 4.01953,-15.24414 3.67678,-19.26029 13.92502,-54.22005 23.08594,-78.75781 1.76869,-4.7375 3.88415,-10.55313 4.70117,-12.92188 1.0393,-3.01319 2.4307,-4.30664 4.63281,-4.30664 2.54389,0 3.27377,0.9761 3.8086,5.08984 0.36396,2.79944 0.13792,5.75984 -0.50391,6.57813 -0.64182,0.8183 -1.16797,2.84979 -1.16797,4.51367 0,2.61961 0.69356,2.91273 5.16992,2.19336 5.04259,-0.81034 5.15265,-0.7258 4.46289,3.40625 -1.01165,6.06035 2.35944,9.15067 7.46485,6.8418 2.85579,-1.29149 3.81427,-1.26732 3.80664,0.0957 -0.0141,2.51761 -6.2367,5.75073 -8.9082,4.62891 -1.69768,-0.71292 -1.85385,-0.47974 -0.68946,1.0332 0.82677,1.07428 3.62084,1.95313 6.20899,1.95313 3.32707,0 4.70703,0.69376 4.70703,2.36718 0,1.85678 -0.98712,2.14461 -4.57617,1.33789 -2.54695,-0.57247 -4.57422,-0.38568 -4.57422,0.41993 0,2.37754 13.98427,8.09179 19.80273,8.09179 2.04951,0 3.72656,0.61397 3.72656,1.36524 0,2.18998 10.28483,3.55316 13.11524,1.73828 2.01614,-1.29277 2.57031,-1.14932 2.57031,0.66406 0,1.27151 0.67503,2.81101 1.5,3.42188 2.8623,2.11947 12.22926,1.92321 15.16602,-0.31836 1.6176,-1.23466 2.9414,-1.58004 2.9414,-0.76563 0,2.76296 9.1553,5.16505 16.07422,4.2168 3.7401,-0.51259 8.27103,-0.81611 10.06836,-0.67383 1.79733,0.14237 7.87525,0.31993 13.50586,0.39453 8.50045,0.11264 10.53334,-0.35131 11.98633,-2.73437 1.68287,-2.76006 1.8056,-2.74757 3.17773,0.32422 2.23687,5.00769 8.81487,5.62612 17.66211,1.66015 6.35412,-2.84839 8.15339,-3.11462 10.27735,-1.52539 5.33792,3.99402 24.43359,0.23122 24.43359,-4.81445 0,-1.78026 4.85294,-1.81804 5.76758,-0.0449 0.38088,0.7384 3.69352,1.76832 7.36328,2.28906 7.68595,1.09062 15.86027,-2.0506 18.91016,-7.26758 1.86729,-3.19411 2.03824,-3.20594 8.13476,-0.58789 6.56357,2.81859 11.75196,3.29177 18.45508,1.68555 3.0953,-0.74171 4.43577,-2.22629 5.6543,-6.26368 1.86263,-6.17152 2.73038,-6.34495 10.875,-2.16211 3.35346,1.72225 9.29662,3.50398 13.20703,3.95899 8.6997,1.01224 9.82938,-0.98098 6.01953,-10.62109 -2.18519,-5.52923 -2.3093,-6.73649 -0.73242,-7.16993 1.04285,-0.28666 3.25461,0.54532 4.91601,1.84961 3.688,2.89519 14.90991,6.69042 23.38867,7.91016 7.12971,1.02567 7.10649,0.0987 -0.18945,-7.5625 -10.3155,-10.83189 -10.20464,-13.11477 0.42188,-8.73438 8.38261,3.45542 29.41725,8.38834 30.45703,7.14258 0.96723,-1.15886 0.9183,-1.19215 -9.07227,-6.16406 -9.77296,-4.86361 -13.93774,-8.03109 -12.62695,-9.60156 0.48616,-0.58247 8.40735,0.10298 17.60156,1.52344 15.46162,2.38877 17.3664,2.3912 25.39063,0.0352 9.00494,-2.64402 16.90234,-7.37584 16.90234,-10.12898 0,-2.06074 -0.8534,-2.01372 -10.70312,0.59766 -4.53793,1.2031 -15.43802,2.60629 -24.22266,3.11719 -15.88336,0.92377 -16.03251,0.90032 -26.79688,-4.30274 -10.19261,-4.9267 -32.47543,-18.23193 -35.56054,-21.23242 -0.77332,-0.75211 -4.34675,-3.28879 -7.94141,-5.63867 -8.91372,-5.827 -9.45459,-6.60517 -6.4668,-9.3125 2.44143,-2.21227 2.40151,-2.30767 -1.01953,-2.35547 -5.38946,-0.0753 -16.34221,-5.31086 -41.62304,-19.90039 -7.72532,-4.45827 -14.49001,-7.63096 -15.03125,-7.04883 -0.54122,0.58214 -0.63651,0.32697 -0.21289,-0.56836 0.4236,-0.89535 -1.88316,-3.31519 -5.12696,-5.37695 l -5.89844,-3.74805 3.04883,-2.91992 c 1.67733,-1.60613 7.1626,-6.23472 12.18946,-10.28515 l 9.14062,-7.36524 14.91406,-0.36719 c 15.44429,-0.38131 18.16933,-0.95631 12.98243,-2.74023 -1.67179,-0.57496 -6.27634,-3.04639 -10.23047,-5.49219 -3.95413,-2.44579 -9.41028,-4.94151 -12.125,-5.54492 -4.09046,-0.90921 -4.66942,-1.4805 -3.38282,-3.33789 1.26337,-1.82387 0.24968,-3.707274 -5.44531,-10.113287 -3.84904,-4.329569 -8.62698,-8.88021 -10.61719,-10.113281 -6.68081,-4.139218 -21.26958,-7.335481 -33.52148,-7.34375 -10.2058,-0.0063 -12.08974,-0.393109 -11.76367,-2.40625 0.21355,-1.318436 2.1518,-3.097938 4.30859,-3.955078 4.79506,-1.905616 6.19993,-3.936971 11.00391,-15.927735 4.5526,-11.363382 9.45142,-37.908334 7.73242,-41.894531 -1.39752,-3.2407534 -2.86362,-3.4576802 -5.29883,-0.783203 -0.98038,1.076704 -2.9343,2.740184 -4.3418,3.695312 -1.4075,0.95513 -4.6185,6.593518 -7.13476,12.529297 -2.51626,5.935778 -4.76929,11.142937 -5.00781,11.572266 -0.23851,0.429327 -1.29543,-0.628237 -2.34766,-2.349609 -1.48912,-2.436023 -1.71793,-5.79953 -1.03711,-15.171875 1.37147,-18.8803781 -0.73957,-23.8208873 -8.20508,-19.2050783 -8.39128,5.1881964 -9.53942,7.2149942 -10.41015,18.3867183 -0.77146,9.898025 -0.97041,10.422426 -3.08204,8.132813 -1.24151,-1.346144 -3.55501,-7.37125 -5.14062,-13.390625 C 302.99182,4.8592268 299.87618,-0.02613733 295.90237,1.0515553e-4 Z M 279.66019,25.755964 c 29.37817,0.06386 45.39453,19.791016 45.39453,19.791016 0,0 6.71466,16.008449 0.125,36.427734 -5.64494,17.491905 28.01953,17.99766 28.01953,18.062506 0,0 20.78191,6.26419 -6.36328,29.69922 -21.08083,18.19954 19.09179,36.76953 19.09179,36.76953 0,0 101.29223,43.1671 70.00391,65.4082 -29.34493,20.85965 -180.3125,15.20117 -180.3125,15.20117 0,0 -19.79828,-2.4747 -61.51758,-38.18359 -41.7193,-35.70889 -43.13476,11.66797 -43.13476,11.66797 0,0 -2.82774,73.18606 -24.74805,86.62109 -21.92031,13.43503 -46.669925,12.72657 -46.669925,12.72657 -47.742536,1.36354 -43.91576,-23.11379 -45.960937,-43.13282 -2.828427,-38.18376 62.93164,-85.91406 62.93164,-85.91406 0,0 41.367002,7.42452 43.134772,-17.32422 1.79272,-25.09803 24.04101,-63.28515 24.04101,-63.28515 48.9782,-67.302211 88.36716,-84.595154 115.96485,-84.535166 z"
     id="path6086"
     inkscape:connector-curvature="0" />
  <path
     style="fill:#ffa800;fill-opacity:1"
     d="m 359.54836,161.93123 c 2.15679,-1.44526 8.62718,-4.50757 14.37864,-6.80516 l 10.4572,-4.17744 -5.2286,-2.98647 c -2.87573,-1.64257 -9.05201,-5.96249 -13.72507,-9.59982 -11.28977,-8.78754 -13.03667,-9.18703 -19.83057,-4.53497 -3.11236,2.13116 -8.8117,4.34237 -12.66519,4.9138 -3.85351,0.57144 -8.30309,2.05694 -9.88795,3.30113 -1.58488,1.24418 -7.43173,3.65642 -12.993,5.36054 -11.56942,3.54516 -12.09877,3.84749 -13.9351,7.9585 -1.15701,2.59018 -0.9202,3.0231 1.62691,2.97427 1.63955,-0.0315 6.10048,0.64289 9.91321,1.49852 3.8127,0.85561 7.66362,1.21938 8.55759,0.80836 0.89397,-0.41101 5.90092,0.33028 11.12656,1.64731 12.69901,3.20055 27.13385,3.03983 32.20537,-0.35857 z M 245.54568,80.819965 c 4.15922,-2.903162 12.17417,-7.773384 17.81103,-10.822717 8.7296,-4.722402 11.66492,-5.544241 19.80201,-5.544241 10.96926,0 17.69806,3.132148 25.38223,11.815019 4.13599,4.673532 5.67471,5.412248 11.27345,5.412248 6.9658,0 9.41012,-2.704379 6.38783,-7.067463 -1.31923,-1.904499 -1.21266,-2.329228 0.58447,-2.329228 2.76357,0 1.39629,-2.835303 -2.33156,-4.834929 -1.54776,-0.830221 -4.72383,-3.181538 -7.05792,-5.225146 -3.82969,-3.353076 -5.68473,-3.73578 -19.01018,-3.92189 -8.87555,-0.123961 -18.53612,0.743861 -24.2159,2.17534 -15.99757,4.03189 -37.86407,18.221506 -38.10492,24.727076 -0.0707,1.910432 1.50697,1.180773 9.47946,-4.384069 z"
     id="path5964"
     inkscape:connector-curvature="0" />
</svg>
